<svg xmlns="http://www.w3.org/2000/svg" xml:space="preserve" width="1000" height="600"><path d="M0 0h1000v600H0z" style="fill:#fff"/><path d="m0 0 1000 600M0 600 1000 0" style="stroke:#cf142b;stroke-width:66.6669998;stroke-miterlimit:133.3333435"/><path d="M555.174 81.205c13.57 54.952 6.128 122.82-55.172 160.477-61.304-37.656-68.746-105.525-55.172-160.477 14.45-13.137 80.127-21.237 110.341 0z" style="fill:#cf142b;stroke:maroon;stroke-width:.628;stroke-miterlimit:140.8071442"/><path d="M468.862 113.755a8.2 8.2 0 0 1-2.909-.503 7.6 7.6 0 0 1-1.873-2.402 13 13 0 0 1-3.343.145 9 9 0 0 1-2.675-1.497 5.1 5.1 0 0 0 2.856-1.138 13.4 13.4 0 0 1-3.182-.552c-.94-.46-1.826-1.02-2.646-1.67.937-.233 1.95-.202 2.69-1.12a11.5 11.5 0 0 1-2.886-.31 10.5 10.5 0 0 1-2.324-1.592c1.069.03 2.099-.4 2.83-1.179a10.3 10.3 0 0 1-2.863-.267 14.7 14.7 0 0 1-2.976-2.002 5.8 5.8 0 0 0 3.114-.825l-.636-1.292c-.769-1.56-2.378-1.01-3.447-1.44a2.96 2.96 0 0 1-1.696-2.219c-.102-1.138.48-2.876 3.05-2.514-1.278-1.946.053-3.344 1.411-3.904 1.305-.538 2.458-.391 3.345 1.74a7 7 0 0 1 1.838-1.107 1.87 1.87 0 0 1 2.23.94c.162.49.148 1.021-.04 1.501-.348.683-1.116 1.151-1.367 2.15-.283 1.132.762 3.106.762 3.106s4.937 3.911 7.208 6.053c1.209 1.14 3.404 3.607 3.404 3.607l.121-.07h4.894l.437 8.257-5.325.104z" style="fill:gold;stroke:#806600;stroke-width:.33174;stroke-miterlimit:135.1748657"/><path d="M455.238 86.485a3.08 3.08 0 0 1 .828 3.048c.285.384.77.565 1.236.46a1.276 1.276 0 0 0 .912-1.63c-.549-.343-.638-1.38-2.976-1.878zm-5.59.615a5.7 5.7 0 0 0-1.44.155 3.08 3.08 0 0 1 2.017 2.43c.417.233.933.197 1.314-.09a1.275 1.275 0 0 0 .156-1.862c-.481-.064-.889-.59-2.047-.632zm-1.656 5.25c-.62.19-1.46-.421-3.368 1.02 1.127-.1 2.22.425 2.845 1.368.477.037.931-.21 1.158-.631a1.274 1.274 0 0 0-.635-1.756z" style="fill:#377bc8;stroke:#2c5aa0;stroke-width:.33174;stroke-miterlimit:135.1748657"/><path d="M497.057 117.543c-.862-.253-1.915-1.386-2.83-1.38a2.53 2.53 0 0 0-2.128 1.266 2.23 2.23 0 0 0 .493 1.883l1.66 1.14a5.5 5.5 0 0 0-1.118 1.866 1.92 1.92 0 0 0 .643 1.514c.546.6.68.833 1.549.96a8.2 8.2 0 0 0 1.747-.153 3 3 0 0 0 .274 1.4 2.88 2.88 0 0 0 2.55 1.395 1.69 1.69 0 0 0 1.544-.834c.35-.492.28-1.749.846-2.267l2.306-2.105c.995.602.969 1.5.845 2.426a8.6 8.6 0 0 0 1.92-1.604c.344-.74.56-1.533.64-2.346a2.56 2.56 0 0 1 1.046 2.61 9.7 9.7 0 0 0 1.991-1.604c.44-.741.78-1.535 1.016-2.363.682.753.9 1.817.569 2.777a7.9 7.9 0 0 0 2.133-2.037 9 9 0 0 0 .569-1.974c2.045.148 3.366-.742 3.456-1.663.071-.715-.74-1.69-2.386-1.972a8.8 8.8 0 0 1-.838-1.58 2.18 2.18 0 0 1 0-1.444 6 6 0 0 1 1.941-2.347c1.116-.786 2.3-1.47 3.537-2.046l-.709-3.55-8.252-1.264-9.122 2.248c1.662.763 5.386 3.371 5.082 4.36-.115.37-.906.72-1.285 1.215-.28.365-.067.948.21 1.324.383.527 1.3.648 1.595 1.144.309.356.338.875.07 1.264-.624.83-2.725 1.178-3.744 1.625-1.857.815-5.001 2.59-5.001 2.59a6.9 6.9 0 0 1-2.817-.474z" style="fill:gold;stroke:#806600;stroke-width:.33174;stroke-miterlimit:135.1748657"/><path d="M516.398 106.37s-.159 2.952-1.39 3.708a2.2 2.2 0 0 1-1.855.233 2.3 2.3 0 0 1-1.159-1.39c-.131-.363-.347-1.275-.347-1.275a11.8 11.8 0 0 0-2.897-.927 17.5 17.5 0 0 0-4.403.811 10.1 10.1 0 0 1 3.244-4.055l4.867-.347 3.94 3.244z" style="fill:gold;stroke:#806600;stroke-width:.33174;stroke-miterlimit:135.1748657"/><path d="M529.542 86.748c1.394-.153 4.257-.722 5.218-1.661l1.705-1.661c-.267 2.761-1.682 4.551-4.687 5.764a17.3 17.3 0 0 1-7.775.977 35 35 0 0 1-4.687-.977c1.67 1.79.821 3.052-1.278 3.909 0 0 .311-1.714-.32-1.954-1.36-.52-2.894.158-4.338.95a8.6 8.6 0 0 1-3.77.85 12.1 12.1 0 0 1-4.511-.63c-1.022-.356-2.795-1.711-3.547-1.577-1.621.291-3.67.455-4.592 1.712a1.5 1.5 0 0 0 0 1.58 5.13 5.13 0 0 0 3.3 1.843c3.43.765 6.975.864 10.442.294 3.789-.536 8.213-1.608 12.001-2.255 3.755-.642 8.597-1.855 11.442-2.44a42.8 42.8 0 0 1 11.049-1.124c6.59.098 8.749 3.307 8.548 6.81-.206 3.6-4.178 5.229-7.578 6.239-5.98 1.775-14.188.764-19.347.643 0 0 1.73 1.328 2.514 1.936.919.711 1.378 2.2 2.513 2.562 1.558.498 3.94-.489 5.587-.576 2.303-.122 6.215.128 6.215.128a3.85 3.85 0 0 1 1.61-1.115 3.1 3.1 0 0 1 1.508-.002c.709.247 1.186 1.014.888 2.438.32.386.755.659 1.242.777.793.155 1.72.018 2.173.149q1.016.364 1.955.896-.933.265-1.814.67a3.9 3.9 0 0 0-.852.879 10 10 0 0 1 2.488.324 4.7 4.7 0 0 1 1.51 1.223 3.6 3.6 0 0 0-1.56.223 7.5 7.5 0 0 0-1.016.837s2.054-.152 2.754.407q.728.635 1.333 1.386a8.3 8.3 0 0 0-1.633.118q-.495.18-.944.454c.764.362 1.456.86 2.044 1.467.355.625.567 1.32.622 2.037a10 10 0 0 0-1.35-.786 3.6 3.6 0 0 0-1.05-.111l.332 2.89c.081.712 1.168 1.481 1.362 2.031a1.34 1.34 0 0 1-.256 1.562 2.81 2.81 0 0 1-2.725.781 3.8 3.8 0 0 1-1.33-.727 6.2 6.2 0 0 1-.948 1.254c-.64.492-.914.43-1.748.4a2.36 2.36 0 0 1-1.652-.556 5.4 5.4 0 0 1-.863-1.95l-1.967.356a2.78 2.78 0 0 1-1.865-.897 2.03 2.03 0 0 1 .257-2.228c.557-.608 2.099-.64 2.884-.975a6.35 6.35 0 0 0 1.974-1.671 47 47 0 0 1-4.707-3.761 32 32 0 0 1-2.125-2.646s-4.19 1.157-5.77 1.392a32.5 32.5 0 0 1-8.047 0c-5.956 0-9.92-8.39-15.335-10.306a6.3 6.3 0 0 0-4.16-.14c-6.275 1.285-12.975 8.58-19.192 10.085-2.609.46-5.247.74-7.895.835a7 7 0 0 1-1.702 2.222c-1.01.38-2.08.574-3.159.572a10.4 10.4 0 0 1-1.24 2.852 8.9 8.9 0 0 1-2.591 1.616 4.1 4.1 0 0 0 .05-2.856 11.4 11.4 0 0 1-1.863 2.43 15 15 0 0 1-2.75 1.52c.155-.88.604-1.715 0-2.71a9.6 9.6 0 0 1-1.502 2.281c-.788.537-1.642.968-2.54 1.284a3.05 3.05 0 0 0 0-2.852 8.6 8.6 0 0 1-1.449 2.282 15.2 15.2 0 0 1-3.217 1.658 4.6 4.6 0 0 0 .468-2.942l-1.545-.002c-1.866-.004-1.985 1.568-2.854 2.283a3.44 3.44 0 0 1-2.904.5c-1.171-.387-2.213-1.744-.79-3.74-2.46.264-3.742-1.274-3.736-2.64.006-1.313.485-2.472 2.966-2.332a5 5 0 0 1-.196-1.736 1.777 1.777 0 0 1 1.856-1.474 2.73 2.73 0 0 1 1.473.654c.534.574.681 1.408 1.57 2.03 1.005.705 3.396.649 3.396.649a63 63 0 0 1 7.713-3.519c1.631-.538 6.263-1.352 6.263-1.352l.146-11.343c1.307.157 2.625.2 3.94.125 3.381-.101 12.264 1.266 12.264 1.266l6.325-.431s10.55-1.587 15.57-2.083c2.53-.29 5.077-.39 7.622-.297 3.824.199 7.109 1.144 10.703 1.339a66 66 0 0 0 8.11.297c4.314-.247 12.027.044 14.478-3.846a2.475 2.475 0 0 0-.64-3.168 3.9 3.9 0 0 0-3.814-1.06c-.88.186-2 .803-2.11 1.562a1.84 1.84 0 0 0 .391 1.412c.354.479.83.854 1.38 1.087a4.8 4.8 0 0 1-2.725-.375 8 8 0 0 1-1.703-2.749 2.55 2.55 0 0 0-.66 1.878c-.02.765.267 1.506.797 2.058a5.2 5.2 0 0 1-2.928-1.125 8.5 8.5 0 0 1-1.158-2.686 3 3 0 0 0-.929 1.94c-.034.877.38 1.262.588 2.183a6.3 6.3 0 0 1-2.724-1.499 8.1 8.1 0 0 1-.919-2.738c-2.245.513-6.53 1.239-11.198 2.158-3.288.648-8.31 1.643-11.859 2.052-6.094.703-10.532.34-14.278-1.12-1.95-.758-2.828-1.489-3.33-3.212a3.94 3.94 0 0 1 1.102-3.443 12.26 12.26 0 0 1 6.31-3.226 95 95 0 0 1 10.97-2.052 42 42 0 0 1 11.813.59c1.758.203 3.65-.128 4.203-.736.466-.51 1.237-1.06.2-2.29.935.104 1.757.67 2.189 1.506.357.606-.085 2.005-.085 2.005z" style="fill:gold"/><path d="M529.542 86.748c1.394-.153 4.257-.722 5.218-1.661l1.705-1.661c-.267 2.761-1.682 4.551-4.687 5.764a17.3 17.3 0 0 1-7.775.977 35 35 0 0 1-4.687-.977c1.67 1.79.821 3.053-1.278 3.909 0 0 .311-1.714-.32-1.954-1.36-.52-2.894.158-4.338.95a8.56 8.56 0 0 1-3.77.85 12.1 12.1 0 0 1-4.511-.63c-1.022-.356-2.795-1.711-3.547-1.577-1.621.291-3.67.455-4.592 1.712a1.5 1.5 0 0 0 0 1.58 5.13 5.13 0 0 0 3.3 1.843c3.43.764 6.975.864 10.442.294 3.789-.536 8.213-1.609 12.001-2.256 3.755-.641 8.597-1.854 11.442-2.44a42.8 42.8 0 0 1 11.049-1.123c6.59.098 8.749 3.306 8.548 6.81-.206 3.599-4.178 5.228-7.578 6.238-5.98 1.775-14.188.765-19.347.643 0 0 1.73 1.329 2.514 1.936.919.712 1.378 2.2 2.513 2.563 1.558.498 3.94-.49 5.587-.577 2.303-.121 6.215.129 6.215.129a3.85 3.85 0 0 1 1.61-1.116 3.1 3.1 0 0 1 1.508-.001c.709.246 1.186 1.013.888 2.438.32.386.755.658 1.242.776.793.156 1.72.018 2.173.149q1.016.364 1.955.896-.933.265-1.814.67a3.9 3.9 0 0 0-.852.88 10 10 0 0 1 2.488.324 4.7 4.7 0 0 1 1.51 1.222 3.6 3.6 0 0 0-1.56.223 7.5 7.5 0 0 0-1.016.837s2.054-.152 2.754.408q.728.633 1.333 1.385a8.3 8.3 0 0 0-1.633.118q-.495.18-.944.454a7.1 7.1 0 0 1 2.044 1.467c.355.625.567 1.32.622 2.038a10 10 0 0 0-1.35-.786 3.6 3.6 0 0 0-1.05-.112l.332 2.891c.081.711 1.168 1.48 1.362 2.03a1.34 1.34 0 0 1-.256 1.563 2.81 2.81 0 0 1-2.725.78 3.8 3.8 0 0 1-1.33-.726 6.2 6.2 0 0 1-.949 1.253 2.22 2.22 0 0 1-1.781.6 2.46 2.46 0 0 1-1.619-.756 5.4 5.4 0 0 1-.862-1.95l-1.967.357a2.78 2.78 0 0 1-1.866-.897 2.03 2.03 0 0 1 .257-2.229c.558-.608 2.1-.64 2.885-.975a6.35 6.35 0 0 0 1.974-1.671 47 47 0 0 1-4.707-3.76 32 32 0 0 1-2.126-2.647s-4.19 1.158-5.77 1.392a32.5 32.5 0 0 1-8.046 0c-5.956 0-9.92-8.39-15.335-10.306a6.3 6.3 0 0 0-4.16-.139c-6.276 1.284-12.975 8.58-19.192 10.084-2.61.461-5.248.74-7.896.836a7 7 0 0 1-1.702 2.222 8.9 8.9 0 0 1-3.158.571 10.4 10.4 0 0 1-1.24 2.852 8.9 8.9 0 0 1-2.592 1.616 4.1 4.1 0 0 0 .051-2.856 11.4 11.4 0 0 1-1.863 2.43 15 15 0 0 1-2.751 1.52c.155-.88.604-1.715 0-2.71a9.6 9.6 0 0 1-1.502 2.281c-.787.537-1.641.968-2.54 1.284a3.05 3.05 0 0 0 0-2.852 8.6 8.6 0 0 1-1.448 2.282 15.2 15.2 0 0 1-3.218 1.658 4.6 4.6 0 0 0 .469-2.942l-1.546-.002c-1.866-.004-1.985 1.568-2.854 2.283a3.44 3.44 0 0 1-2.903.5c-1.172-.387-2.213-1.744-.79-3.74-2.461.264-3.743-1.274-3.737-2.64.006-1.313.485-2.472 2.966-2.332a5 5 0 0 1-.195-1.736 1.777 1.777 0 0 1 1.855-1.474c.546.065 1.06.293 1.473.654.534.574.682 1.408 1.57 2.03 1.005.705 3.396.649 3.396.649a63 63 0 0 1 7.713-3.519c1.631-.538 6.263-1.352 6.263-1.352l.146-11.343c1.307.157 2.625.2 3.94.125 3.381-.101 12.265 1.266 12.265 1.266l6.325-.431s10.55-1.587 15.569-2.083c2.53-.29 5.077-.39 7.622-.297 3.824.2 7.109 1.144 10.704 1.339 2.694.266 5.402.365 8.108.297 4.315-.247 12.028.044 14.479-3.846a2.475 2.475 0 0 0-.64-3.168 3.9 3.9 0 0 0-3.813-1.06c-.881.186-2.002.803-2.112 1.562-.067.458.077.922.392 1.26.38.495.847.915 1.38 1.239 0 0-2.175.098-3.028-.526a5.8 5.8 0 0 1-1.4-2.598 2.55 2.55 0 0 0-.66 1.878c-.02.765.268 1.506.797 2.058a5.2 5.2 0 0 1-2.928-1.124 8.5 8.5 0 0 1-1.158-2.687 3 3 0 0 0-.929 1.94c-.033.877.38 1.262.588 2.184a6.3 6.3 0 0 1-2.724-1.5 8.1 8.1 0 0 1-.919-2.738c-2.245.513-6.53 1.239-11.198 2.158-3.288.648-8.31 1.643-11.858 2.052-6.095.703-10.532.34-14.28-1.12-1.949-.758-2.827-1.489-3.33-3.212a3.94 3.94 0 0 1 1.103-3.444 12.26 12.26 0 0 1 6.31-3.225 95 95 0 0 1 10.97-2.052 42 42 0 0 1 11.813.59c1.758.204 3.65-.128 4.203-.736.466-.51 1.237-1.06.2-2.29.936.104 1.758.67 2.19 1.506.356.606-.085 2.005-.085 2.005z" style="fill:none;stroke:#806600;stroke-width:.33174;stroke-miterlimit:135.1748657"/><path d="M484.458 102.903c1.24.773 2.604-.24 2.885-.343a3.3 3.3 0 0 1-.997-1.41 9 9 0 0 1-.389-2.41c-.09-2.061.73-2.38.757-2.225a9.2 9.2 0 0 0 1.932-.904 3.04 3.04 0 0 0 .933-1.79 6.4 6.4 0 0 0-.17-2.447c-1.984-.115-2.488.148-2.953.755a9 9 0 0 0-.318-1.937 6 6 0 0 0-.78-1.591 2.7 2.7 0 0 0-.675-.665c-.012.525-.485 1.006-.727 1.373a8.3 8.3 0 0 0-.706-2.737 7.7 7.7 0 0 0-1.457-1.296 7.8 7.8 0 0 0-1.85.33 8.3 8.3 0 0 0-2.07 1.925 2.95 2.95 0 0 1 .13-1.548c-.319.01-.633.076-.928.196-.548.23-1.058.54-1.514.92a9 9 0 0 0-1.311 1.462c-.033-.796-.304-1.254-2.082-2.228a6.4 6.4 0 0 0-1.46 1.97 3.06 3.06 0 0 0-.179 2.012c.31.643.693 1.248 1.141 1.803.108-.118.627.596-.561 2.282a9 9 0 0 1-1.625 1.82 3.3 3.3 0 0 1-1.6.652c.442 1.15.562 1.621 2.246 1.843-3.837 2.754-4.272 7.147-1.327 10.889a8.6 8.6 0 0 1 1.239-1.862 5.4 5.4 0 0 0 1.144 3.28c.356.363.528 2.381 1.042 3.016q.53.634 1.126 1.209s.51-1.6 1.26-1.85c.753-.25 2.162-.654 2.627-.8.935-.295 2.6-2.288 2.6-2.288l-.294 2.436c5.048-1.79 6.2-5.217 4.908-9.841h.003z" style="fill:gold"/><path d="M474.671 96.687a10.3 10.3 0 0 1-1.016 5.08l3.28 1.317 3.239.374c-.264-1.326 1.033-3.918 1.68-4.799l-2.38.051-1.063-1.062-1.943.432-1.797-1.394z" style="fill:#504416"/><path d="M475.318 97.506a4 4 0 0 0-.101 2.452l.946-2.027-.844-.425zm4.595 1.495-.267 2.221a4 4 0 0 0 1.208-2.137zm-4.692 1.564a4.02 4.02 0 0 0-1.208 2.137l.94.085.267-2.222zm4.128 1.178-.947 2.028.844.425a4 4 0 0 0 .102-2.453zm-3.716-10.739c-.614-.034-1.047.19-1.187.676-.186.652.27 1.353 1.235 1.628a1.68 1.68 0 0 0 2.09-.868c.185-.65-.503-1.04-1.467-1.315a3.3 3.3 0 0 0-.671-.122zm6.759 1.956c-.483-.02-.835.121-.951.527a1.68 1.68 0 0 0 1.316 1.84c.965.274 1.723-.078 1.909-.73s-.321-1.178-1.286-1.453a4.2 4.2 0 0 0-.988-.183z" style="fill:#fff"/><path d="M475.643 90.838a1.9 1.9 0 0 0-.611.06 1.04 1.04 0 0 0-.736.736c-.103.377-.024.78.213 1.09.285.368.683.63 1.133.745.902.326 1.9-.108 2.278-.99a.89.89 0 0 0-.356-.962 3.5 3.5 0 0 0-1.207-.555 3.2 3.2 0 0 0-.714-.125zm-.011.321a3 3 0 0 1 .637.115c.393.099.765.269 1.096.501.22.12.323.38.244.616a1.53 1.53 0 0 1-1.878.767 1.75 1.75 0 0 1-.96-.61.95.95 0 0 1-.166-.825.7.7 0 0 1 .527-.521q.244-.063.498-.044zm6.77 1.642q-.15-.004-.298.013a.89.89 0 0 0-.81.63 1.81 1.81 0 0 0 1.413 2.042c.443.14.92.128 1.354-.034.366-.138.646-.439.758-.813a1.04 1.04 0 0 0-.237-1.013 2.47 2.47 0 0 0-1.16-.647c-.332-.1-.675-.16-1.021-.179v.001zm-.017.328q.484.023.949.162c.376.087.721.273 1.001.538.189.19.255.468.173.722a.94.94 0 0 1-.574.613 1.76 1.76 0 0 1-1.138.012 1.53 1.53 0 0 1-1.191-1.643c.077-.267.23-.36.533-.394q.122-.013.246-.01z" style="fill:#d1b948"/><path d="M475.673 89.554a1.6 1.6 0 0 0-1.29.325c-.193.185-.223.776-.223.776l.69.009.778.223 1.676.751 1.837-.105s-1.004-.41-1.495-.688c-.663-.376-1.22-1.188-1.974-1.29zm8.8 2.512c-.634-.163-1.361.175-2.027.145-.564-.023-1.672-.216-1.672-.216l1.504 1.06 1.82.246.759.216.59.358s.288-.519.224-.777a1.6 1.6 0 0 0-1.195-1.035zm-10.658 9.756c-1.762 4.262 5.055 6.417 6.052 1.727a13.8 13.8 0 0 1-6.052-1.727" style="fill:gold"/><path d="m473.65 101.387-.14.339a3.38 3.38 0 0 0 .089 3.008 3.512 3.512 0 0 0 6.576-1.105l.081-.355-.371-.022a13.4 13.4 0 0 1-5.925-1.691l-.308-.173zm.212.522a17.5 17.5 0 0 0 6.003 1.665 4.1 4.1 0 0 1-1.397 2.209 4.36 4.36 0 0 1-2.69.216 4.42 4.42 0 0 1-2.04-1.775 3.27 3.27 0 0 1 .125-2.316z" style="fill:#806600"/><path d="M476.618 98.09c-.848 2.804-1.587 5.973-1.012 8.892 2.03-2.176 3.067-5.23 3.825-8.06.004-.115-.557-.367-.629-.457q-.257-.36-.474-.747a4.2 4.2 0 0 1-.888.434 2.5 2.5 0 0 1-.822-.064z" style="fill:#377bc8;stroke:#2c5aa0;stroke-width:.33174;stroke-miterlimit:135.1748657"/><path d="M481.734 85.258a7.8 7.8 0 0 0-1.85.331 8.3 8.3 0 0 0-2.069 1.925 2.95 2.95 0 0 1 .129-1.548c-.318.01-.632.076-.927.196-.548.23-1.058.54-1.515.92a9 9 0 0 0-1.31 1.461c.644-.022 2.075-1.313 2.628-1.188.47.105.146 1.363.598 1.42.618.078 1.168-.889 1.937-1.566.682-.6 1.63-1.058 2.083-.91a3.07 3.07 0 0 1 1.264 1.912c.283 1.029.494 2.137.967 2.369.47.23.877-1.046 1.355-.886.568.189.83 2.133 1.373 2.418a9 9 0 0 0-.318-1.937 6 6 0 0 0-.78-1.592 2.7 2.7 0 0 0-.675-.664c-.012.525-.485 1.006-.726 1.373a8.3 8.3 0 0 0-.706-2.737 7.7 7.7 0 0 0-1.458-1.296zm-8.183 7.186c-.7 1.187.179 2.326 1.594 2.58l-.548 1.395.804 1.573 1.464.51 1.385-.547.92 1.25 1.286.29 1.654-.994.662-1.12 1.033-.064.883-.424.315-1.1a2.88 2.88 0 0 1-3.296.472 2.65 2.65 0 0 1-.568 1.74 1.32 1.32 0 0 1-1.343.284 2.87 2.87 0 0 1-1.37-1.212c-.601.36-1.115.634-1.487.513a1.83 1.83 0 0 1-1.34-1.25 1.98 1.98 0 0 1 .594-1.771c-3.08-.814-1.975-1.634-2.643-2.123v-.002zm-1.591.4a24.7 24.7 0 0 1-2.475 3.375 3.27 3.27 0 0 1-1.6.652c.442 1.15.562 1.621 2.246 1.844-3.837 2.753-4.272 7.146-1.327 10.888a8.6 8.6 0 0 1 1.238-1.861 5.4 5.4 0 0 0 1.145 3.28c.356.363.529 2.38 1.042 3.015q.532.635 1.126 1.21s.511-1.601 1.26-1.85c.753-.25 2.162-.654 2.626-.8.935-.295 2.6-2.288 2.6-2.288l-.29 2.436c5.048-1.79 6.2-5.217 4.907-9.841 1.242.772 2.605-.24 2.886-.343a3.3 3.3 0 0 1-.997-1.412 9.7 9.7 0 0 1-.388-2.408l-.119-1.518s-.57 1.704-.706 2.179c-.059.72-.043 1.444.048 2.16a6.8 6.8 0 0 1-2.369-1.185c.43 1.661.752 3.349.96 5.052a9.3 9.3 0 0 1-.588 3.26 8.7 8.7 0 0 1-2.113 2.187 25 25 0 0 0 .412-2.942c-.011-1.067-.435-3.777-.435-3.777a20.6 20.6 0 0 1-1.087 3.605c-.548.942-1.552 2.604-1.552 2.604.28-2.657.142-2.81-.203-3.814 0 0-.63 3.304-1.796 4.725a10 10 0 0 1-2.03.968 2.24 2.24 0 0 0-.918.759s-.661-1.85-.845-2.277a26 26 0 0 1-1.493-2.932c-.405-1.458 1.55-4.594 1.55-4.594-.724.013-1.448.863-2.229 1.8a23 23 0 0 0-1.718 2.157 20 20 0 0 1-.614-2.954 5.64 5.64 0 0 1 .867-2.74c.8-1.334 4.314-4.073 4.314-4.073a5.56 5.56 0 0 1-3.677.071s1.451-1.701 1.69-2.102a5.44 5.44 0 0 0 .653-2.516zm6.548 1.4q-.824 0-1.642.084l.098.629.66.256.894 1.33 2.275-.61.304-.52a8 8 0 0 0-1.964-1.11 3 3 0 0 0-.624-.057z" style="fill:gold"/><path d="M484.458 102.903c1.24.773 2.604-.24 2.885-.343a3.3 3.3 0 0 1-.997-1.41 9 9 0 0 1-.389-2.41c-.09-2.061.73-2.38.757-2.225a9.2 9.2 0 0 0 1.932-.904 3.04 3.04 0 0 0 .933-1.79 6.4 6.4 0 0 0-.17-2.447c-1.984-.115-2.488.148-2.953.755a9 9 0 0 0-.318-1.937 6 6 0 0 0-.78-1.591 2.7 2.7 0 0 0-.675-.665c-.012.525-.485 1.006-.727 1.373a4.94 4.94 0 0 0-2.163-4.033c-1.77.04-2.794.902-3.919 2.254a2.95 2.95 0 0 1 .128-1.548 2.7 2.7 0 0 0-.926.196c-.548.23-1.059.54-1.515.92a9 9 0 0 0-1.31 1.462c-.033-.796-.305-1.254-2.082-2.228a6.4 6.4 0 0 0-1.46 1.97 3.06 3.06 0 0 0-.18 2.012c.31.643.693 1.248 1.141 1.803.108-.118.628.596-.561 2.282a9 9 0 0 1-1.625 1.82 3.3 3.3 0 0 1-1.6.652c.442 1.15.563 1.621 2.246 1.843-3.837 2.754-4.272 7.147-1.326 10.889a8.6 8.6 0 0 1 1.238-1.862 5.4 5.4 0 0 0 1.144 3.28c.356.363.529 2.381 1.042 3.016q.531.634 1.126 1.209s.51-1.6 1.26-1.85c.754-.25 2.162-.654 2.627-.8.935-.295 2.6-2.288 2.6-2.288l-.293 2.437c5.047-1.79 6.2-5.217 4.907-9.842z" style="fill:none;stroke:#806600;stroke-width:.33174;stroke-miterlimit:135.1748657"/><path d="M472.17 87.71a4.06 4.06 0 0 0-.69 2.063c.293.76.7 1.469 1.209 2.104a11 11 0 0 0 .577-2.9c-.078-.577-1.096-1.267-1.096-1.267m2.736 2.698a1.1 1.1 0 0 0-.442.115c-.3.149-.507.193-.635.642.32-.065.628-.177.915-.331a.48.48 0 0 1 .379.037q.738.425 1.524.755a6.1 6.1 0 0 0 2.391-.092 3.4 3.4 0 0 1-.32.981c-.099.142-.806.412-1.133.722a11 11 0 0 0-.459.46 1.35 1.35 0 0 0-.317.453c-.083.25-.104.516-.061.776l.015.213.203.064c.553.108.98.549 1.07 1.105l.029.091.067.054q.1.093.21.173a.6.6 0 0 0 .247.091c.165.02.196-.014.349-.005l.128.009.102-.088a1.35 1.35 0 0 1 1.498-.372l.2.05.131-.172c.169-.201.289-.438.35-.693.041-.196-.053-.294-.09-.492a9 9 0 0 0-.146-.633c-.115-.436-.476-1.231-.484-1.401.02-.328.092-.65.213-.956a6.2 6.2 0 0 0 1.978 1.424q.841.136 1.693.162c.206.038.297.098.342.166l.603.764c.1-.352.025-.731-.203-1.018-.179-.284-.338-.253-.623-.307-.576-.109-1.24-.04-1.634-.152a5 5 0 0 1-1.9-1.311l-.274-.24-.207.304c-.25.443-.366.95-.33 1.457q.187.74.47 1.449c.057.213.108.422.138.589q.027.15.026.3a1.3 1.3 0 0 1-.149.284 2.82 2.82 0 0 0-1.978.593c-.078.002-.186-.005-.18-.002-.009-.007-.036-.034-.06-.054a3.26 3.26 0 0 0-1.486-1.682 1.2 1.2 0 0 1 .021-.321q.084-.128.186-.24c.115-.125.267-.274.429-.427.32-.305.993-.604 1.188-.89.297-.413.466-.904.487-1.413l-.02-.367-.358.057a4.5 4.5 0 0 1-2.21.119c-.392-.115-.921-.522-1.467-.733a1.1 1.1 0 0 0-.42-.074zm-1.312 1.734a1.94 1.94 0 0 0-.304 2.07c.31.501.804.862 1.376 1.006-.034.098-.044.111-.085.253a2.7 2.7 0 0 0-.149 1.014 2.64 2.64 0 0 0 .985 1.722 2.32 2.32 0 0 0 1.606.514c.314-.027.618-.12.892-.274q.086-.045.166-.098c.16.352.409.657.723.882a2.3 2.3 0 0 0 1.63.41 2.315 2.315 0 0 0 2.152-1.885c.03-.112.024-.115.044-.203a1.99 1.99 0 0 0 1.722-.183c.58-.451.892-1.167.828-1.9-.474.24-.051.946-1.09 1.59a1.45 1.45 0 0 1-1.462 0l-.483-.396.031.686s-.04.234-.118.51a2.7 2.7 0 0 1-.294.716c-.372.403-.88.653-1.427.7a1.73 1.73 0 0 1-1.165-.304 2.4 2.4 0 0 1-.626-.891l-.159-.664-.334.372q-.239.176-.512.29a1.7 1.7 0 0 1-.627.196 1.74 1.74 0 0 1-1.158-.358 2.6 2.6 0 0 1-.882-1.494q.006-.392.129-.764a1.8 1.8 0 0 1 .243-.495l.274-.353-.554.033a1.82 1.82 0 0 1-1.277-.816c-.687-.76-.067-1.311-.094-1.883zm14.98.25s-1.228.051-1.599.499c-.47.87-.82 1.801-1.04 2.767a8 8 0 0 0 2.136-1.149 4.05 4.05 0 0 0 .503-2.117" style="fill:#806600"/><path d="M476.167 91.438a.681.681 0 0 0-.192 1.337.681.681 0 1 0 .192-1.336zm6.794 1.946a.681.681 0 0 0-.173 1.335h.001a.68.68 0 1 0 .171-1.336h.001z" style="fill:#2b2200"/><path d="M450.172 114.438c-.605.233-1.486-.32-3.289 1.25a3.08 3.08 0 0 1 2.935 1.168c.478.004.913-.275 1.11-.71a1.275 1.275 0 0 0-.755-1.708zm42.44 2.011c-.604.233-1.487-.314-3.285 1.262a3.08 3.08 0 0 1 2.938 1.158 1.21 1.21 0 0 0 1.107-.715 1.276 1.276 0 0 0-.76-1.705zm-45.562 2.334c-.463.452-1.49.294-2.526 2.45a3.08 3.08 0 0 1 3.156-.089 1.21 1.21 0 0 0 .74-1.091 1.275 1.275 0 0 0-1.37-1.27zm46.298 3.343c-.435.48-1.47.384-2.373 2.598a3.09 3.09 0 0 1 3.146-.28c.429-.213.692-.658.67-1.136a1.275 1.275 0 0 0-1.443-1.183zm-43.024 1.817a1.6 1.6 0 0 0-.79.196c-.19.619-1.166.975-1.038 3.363a3.08 3.08 0 0 1 2.725-1.596c.297-.374.345-.89.122-1.312a1.26 1.26 0 0 0-1.02-.65zm92.152.257c-.19.01-.378.051-.555.121-.257.595-1.265.842-1.398 3.23a3.08 3.08 0 0 1 2.883-1.289c.336-.34.44-.846.264-1.29a1.23 1.23 0 0 0-1.196-.772zm-43.9 1.614a1.6 1.6 0 0 0-.765.277c-.122.636-1.057 1.093-.677 3.453a3.08 3.08 0 0 1 2.542-1.874c.256-.404.25-.92-.017-1.318a1.25 1.25 0 0 0-1.083-.539zm54.678.162a1.3 1.3 0 0 0-1.242.768c.19.62-.425 1.46 1.012 3.37a3.09 3.09 0 0 1 1.375-2.843 1.2 1.2 0 0 0-.63-1.157 1.6 1.6 0 0 0-.515-.139zm-5.897.693c-.358.04-.687.213-.925.483.02.647-.79 1.297.098 3.517a3.08 3.08 0 0 1 2.069-2.386c.16-.45.041-.952-.304-1.282a1.32 1.32 0 0 0-.937-.331h-.001z" style="fill:#377bc8;stroke:#2c5aa0;stroke-width:.33174;stroke-miterlimit:135.1748657"/><path d="M468.98 158.833a7.8 7.8 0 0 1-2.768-.48 7.2 7.2 0 0 1-1.783-2.285c-1.05.183-2.12.23-3.181.138a8.5 8.5 0 0 1-2.545-1.424 4.84 4.84 0 0 0 2.717-1.082 12.8 12.8 0 0 1-3.028-.526 14 14 0 0 1-2.517-1.588c.892-.222 1.856-.193 2.559-1.066a11 11 0 0 1-2.746-.296 10 10 0 0 1-2.211-1.514 3.56 3.56 0 0 0 2.693-1.122 9.8 9.8 0 0 1-2.724-.254 14 14 0 0 1-2.833-1.905 5.5 5.5 0 0 0 2.964-.785l-.606-1.23c-.73-1.484-2.262-.96-3.28-1.37a2.81 2.81 0 0 1-1.614-2.11c-.096-1.083.458-2.738 2.902-2.393-1.215-1.852.052-3.182 1.344-3.715 1.242-.512 2.339-.372 3.183 1.655a6.6 6.6 0 0 1 1.748-1.053 1.78 1.78 0 0 1 2.123.895c.154.466.14.971-.039 1.428-.331.65-1.061 1.096-1.3 2.046-.27 1.077.724 2.955.724 2.955s4.698 3.722 6.86 5.76c1.15 1.085 3.238 3.432 3.238 3.432l.116-.067h4.656l.416 7.857z" style="fill:gold;stroke:#806600;stroke-width:.31566;stroke-miterlimit:128.6234894"/><path d="M456.015 132.888a2.93 2.93 0 0 1 .789 2.9c.27.365.731.537 1.175.438a1.214 1.214 0 0 0 .868-1.55c-.522-.328-.607-1.314-2.832-1.788zm-5.319.585a5.5 5.5 0 0 0-1.37.148 2.93 2.93 0 0 1 1.919 2.312 1.15 1.15 0 0 0 1.25-.086 1.214 1.214 0 0 0 .149-1.771c-.458-.061-.846-.562-1.948-.602zm-1.576 4.996c-.589.18-1.39-.401-3.205.97a2.94 2.94 0 0 1 2.708 1.302c.454.035.886-.2 1.101-.601a1.213 1.213 0 0 0-.604-1.67z" style="fill:#377bc8;stroke:#2c5aa0;stroke-width:.31566;stroke-miterlimit:128.6234894"/><path d="M495.808 162.438c-.821-.242-1.823-1.32-2.694-1.314a2.41 2.41 0 0 0-2.024 1.205 2.12 2.12 0 0 0 .469 1.791l1.579 1.086a5.2 5.2 0 0 0-1.064 1.775 1.82 1.82 0 0 0 .612 1.44c.52.572.647.793 1.474.913a8 8 0 0 0 1.663-.144c-.02.458.069.915.26 1.332a2.74 2.74 0 0 0 2.427 1.326c.6.032 1.167-.275 1.47-.793.331-.468.266-1.664.804-2.157l2.194-2.003c.947.573.922 1.427.804 2.309a8.2 8.2 0 0 0 1.827-1.527 6.9 6.9 0 0 0 .61-2.232 2.43 2.43 0 0 1 .994 2.484 9.3 9.3 0 0 0 1.895-1.527 9.5 9.5 0 0 0 .967-2.248 2.65 2.65 0 0 1 .541 2.642 7.6 7.6 0 0 0 2.03-1.938 8.6 8.6 0 0 0 .541-1.879c1.946.142 3.203-.705 3.289-1.582.067-.68-.704-1.607-2.27-1.876a8.3 8.3 0 0 1-.798-1.503 2.08 2.08 0 0 1 0-1.374 5.7 5.7 0 0 1 1.847-2.234 22 22 0 0 1 3.366-1.947l-.675-3.378-7.853-1.203-8.68 2.14c1.583.725 5.126 3.208 4.837 4.148-.11.352-.862.685-1.223 1.157-.267.347-.064.901.2 1.26.365.5 1.237.616 1.517 1.088a.984.984 0 0 1 .068 1.202c-.595.79-2.594 1.121-3.563 1.547-1.767.775-4.76 2.465-4.76 2.465a6.5 6.5 0 0 1-2.68-.451z" style="fill:gold;stroke:#806600;stroke-width:.31566;stroke-miterlimit:128.6234894"/><path d="M514.211 151.806s-.151 2.81-1.323 3.528a2.1 2.1 0 0 1-1.764.222 2.2 2.2 0 0 1-1.103-1.323c-.125-.346-.33-1.213-.33-1.213a11.2 11.2 0 0 0-2.757-.882 16.6 16.6 0 0 0-4.19.772 9.63 9.63 0 0 1 3.087-3.859l4.63-.33z" style="fill:gold;stroke:#806600;stroke-width:.31566;stroke-miterlimit:128.6234894"/><path d="M526.718 133.134c1.327-.144 4.05-.686 4.966-1.58.426-.417 1.621-1.58 1.621-1.58-.254 2.627-1.6 4.33-4.459 5.485a16.44 16.44 0 0 1-7.399.93 33.5 33.5 0 0 1-4.459-.93c1.588 1.702.781 2.904-1.216 3.719 0 0 .296-1.631-.306-1.86-1.293-.494-2.752.151-4.126.905a8.15 8.15 0 0 1-3.587.807 11.5 11.5 0 0 1-4.293-.6c-.973-.337-2.66-1.627-3.375-1.499-1.543.277-3.492.433-4.37 1.629a1.42 1.42 0 0 0 0 1.503 4.88 4.88 0 0 0 3.141 1.754c3.264.727 6.636.822 9.935.28 3.605-.51 7.816-1.53 11.42-2.146 3.573-.611 8.18-1.764 10.887-2.322a40.7 40.7 0 0 1 10.514-1.07c6.271.094 8.324 3.147 8.133 6.48-.196 3.425-3.975 4.976-7.21 5.937-5.69 1.689-13.5.727-18.41.612 0 0 1.646 1.264 2.392 1.842.875.677 1.312 2.093 2.392 2.438 1.482.474 3.75-.465 5.316-.548 2.191-.116 5.914.122 5.914.122a3.66 3.66 0 0 1 1.532-1.062c.47-.119.964-.119 1.434 0 .675.237 1.13.963.846 2.319a2.2 2.2 0 0 0 1.181.739c.756.148 1.637.017 2.068.141.643.23 1.266.516 1.86.853-.59.168-1.168.381-1.726.638a3.7 3.7 0 0 0-.81.836 9.5 9.5 0 0 1 2.367.309c.555.283 1.045.68 1.438 1.163a3.45 3.45 0 0 0-1.485.212 7 7 0 0 0-.967.796s1.954-.144 2.62.388q.693.603 1.269 1.319a8 8 0 0 0-1.554.112 5 5 0 0 0-.898.432 6.7 6.7 0 0 1 1.945 1.396 4.6 4.6 0 0 1 .592 1.939 9.5 9.5 0 0 0-1.285-.748 3.5 3.5 0 0 0-.998-.106l.315 2.75c.077.677 1.111 1.41 1.296 1.932a1.28 1.28 0 0 1-.244 1.487 2.68 2.68 0 0 1-2.592.743 3.7 3.7 0 0 1-1.267-.692 6 6 0 0 1-.902 1.193c-.608.469-.87.41-1.663.381a2.25 2.25 0 0 1-1.572-.53 5.1 5.1 0 0 1-.82-1.855l-1.872.339a2.65 2.65 0 0 1-1.776-.854 1.93 1.93 0 0 1 .245-2.12c.53-.579 1.997-.61 2.745-.928a6 6 0 0 0 1.878-1.59 45 45 0 0 1-4.479-3.579 31 31 0 0 1-2.022-2.518s-3.987 1.102-5.49 1.325a31 31 0 0 1-7.657 0c-5.668 0-9.439-7.984-14.592-9.807a6 6 0 0 0-3.958-.131c-5.971 1.221-12.346 8.163-18.262 9.595a54.5 54.5 0 0 1-7.513.795 6.6 6.6 0 0 1-1.62 2.114 8.5 8.5 0 0 1-3.005.544 9.9 9.9 0 0 1-1.18 2.714 8.5 8.5 0 0 1-2.466 1.537 3.9 3.9 0 0 0 .049-2.718 10.8 10.8 0 0 1-1.773 2.312 14.2 14.2 0 0 1-2.618 1.446c.148-.836.575-1.63 0-2.578a9.1 9.1 0 0 1-1.429 2.171c-.749.51-1.562.921-2.417 1.221a2.9 2.9 0 0 0 0-2.713 8.1 8.1 0 0 1-1.378 2.17 14.5 14.5 0 0 1-3.061 1.58c.454-.86.61-1.844.445-2.8l-1.47-.003c-1.776-.003-1.889 1.492-2.716 2.173a3.28 3.28 0 0 1-2.763.475c-1.114-.367-2.105-1.66-.752-3.558-2.341.25-3.56-1.212-3.555-2.512.006-1.25.462-2.353 2.823-2.22a4.8 4.8 0 0 1-.187-1.65 1.69 1.69 0 0 1 1.766-1.404 2.6 2.6 0 0 1 1.402.624c.508.545.648 1.34 1.493 1.931a7.2 7.2 0 0 0 3.232.617 60 60 0 0 1 7.339-3.348c1.552-.512 5.96-1.286 5.96-1.286l.138-10.794c1.244.15 2.499.19 3.75.12 3.217-.097 11.67 1.204 11.67 1.204l6.018-.41s10.039-1.51 14.815-1.982a48 48 0 0 1 7.252-.283c3.64.19 6.765 1.089 10.185 1.274 2.564.253 5.14.348 7.716.283 4.106-.235 11.445.041 13.777-3.66a2.355 2.355 0 0 0-.609-3.015 3.71 3.71 0 0 0-3.629-1.008c-.838.177-1.904.764-2.008 1.486-.067.48.068.967.372 1.344.337.456.79.813 1.313 1.034a4.57 4.57 0 0 1-2.593-.357 7.6 7.6 0 0 1-1.62-2.615 2.42 2.42 0 0 0-.628 1.787 2.73 2.73 0 0 0 .758 1.958 4.95 4.95 0 0 1-2.786-1.07 8.1 8.1 0 0 1-1.102-2.556 2.87 2.87 0 0 0-.883 1.846c-.033.834.361 1.2.56 2.077a6 6 0 0 1-2.593-1.427 7.7 7.7 0 0 1-.874-2.606c-2.137.489-6.215 1.18-10.656 2.054-3.129.617-7.907 1.564-11.284 1.953-5.8.669-10.021.323-13.586-1.065-1.856-.723-2.691-1.417-3.17-3.057a3.75 3.75 0 0 1 1.05-3.277 11.67 11.67 0 0 1 6.004-3.07 91 91 0 0 1 10.439-1.952 40 40 0 0 1 11.24.562c1.673.193 3.473-.122 4-.7.443-.486 1.176-1.009.189-2.18.89.1 1.673.637 2.083 1.434.34.576-.08 1.907-.08 1.907z" style="fill:gold"/><path d="M526.718 133.134c1.327-.144 4.05-.686 4.966-1.58.426-.417 1.621-1.58 1.621-1.58-.254 2.627-1.6 4.33-4.459 5.485a16.44 16.44 0 0 1-7.399.93 33.5 33.5 0 0 1-4.459-.93c1.588 1.702.781 2.904-1.216 3.719 0 0 .296-1.63-.306-1.86-1.293-.494-2.752.151-4.126.905a8.15 8.15 0 0 1-3.587.807 11.5 11.5 0 0 1-4.293-.6c-.973-.337-2.66-1.627-3.375-1.499-1.543.277-3.492.433-4.37 1.629a1.42 1.42 0 0 0 0 1.503 4.88 4.88 0 0 0 3.141 1.754c3.264.727 6.636.822 9.935.28 3.605-.51 7.816-1.53 11.42-2.146 3.573-.611 8.18-1.765 10.887-2.322a40.7 40.7 0 0 1 10.514-1.07c6.271.094 8.324 3.147 8.133 6.48-.196 3.425-3.975 4.976-7.21 5.937-5.69 1.689-13.5.727-18.41.612 0 0 1.646 1.264 2.392 1.842.875.677 1.312 2.093 2.392 2.438 1.482.474 3.75-.465 5.316-.548 2.191-.116 5.914.122 5.914.122a3.66 3.66 0 0 1 1.532-1.062c.47-.119.964-.119 1.434 0 .675.237 1.13.963.846 2.319a2.2 2.2 0 0 0 1.181.739c.756.148 1.637.017 2.068.141.643.23 1.266.516 1.86.853-.59.168-1.168.381-1.726.638a3.7 3.7 0 0 0-.81.836 9.5 9.5 0 0 1 2.367.309c.555.283 1.045.68 1.438 1.163a3.4 3.4 0 0 0-1.485.212 7 7 0 0 0-.967.796s1.954-.144 2.62.388q.693.603 1.269 1.319a8 8 0 0 0-1.554.112 5 5 0 0 0-.898.432 6.7 6.7 0 0 1 1.945 1.396 4.6 4.6 0 0 1 .592 1.939 9.5 9.5 0 0 0-1.285-.748 3.5 3.5 0 0 0-.998-.106l.315 2.75c.077.677 1.111 1.41 1.296 1.933.25.496.151 1.096-.244 1.486a2.68 2.68 0 0 1-2.592.743 3.7 3.7 0 0 1-1.267-.692 6 6 0 0 1-.902 1.193 2.11 2.11 0 0 1-1.695.57 2.34 2.34 0 0 1-1.54-.719 5.1 5.1 0 0 1-.821-1.855l-1.872.34a2.65 2.65 0 0 1-1.775-.854 1.93 1.93 0 0 1 .245-2.12c.53-.58 1.997-.61 2.744-.928a6 6 0 0 0 1.879-1.59 45 45 0 0 1-4.48-3.58 31 31 0 0 1-2.022-2.517s-3.987 1.101-5.49 1.325a31 31 0 0 1-7.657 0c-5.667 0-9.438-7.984-14.591-9.807a6 6 0 0 0-3.959-.132c-5.97 1.222-12.346 8.164-18.262 9.595a54.5 54.5 0 0 1-7.512.795 6.6 6.6 0 0 1-1.62 2.115 8.5 8.5 0 0 1-3.005.544 9.9 9.9 0 0 1-1.18 2.713 8.5 8.5 0 0 1-2.466 1.537c.341-.87.358-1.835.048-2.717a10.8 10.8 0 0 1-1.773 2.312 14.2 14.2 0 0 1-2.618 1.446c.148-.837.575-1.631 0-2.578a9.1 9.1 0 0 1-1.428 2.17c-.75.511-1.562.922-2.418 1.222a2.9 2.9 0 0 0 0-2.714 8.1 8.1 0 0 1-1.377 2.172 14.5 14.5 0 0 1-3.062 1.578 4.4 4.4 0 0 0 .446-2.8l-1.47-.002c-1.777-.003-1.89 1.492-2.716 2.172a3.28 3.28 0 0 1-2.763.476c-1.115-.368-2.106-1.66-.753-3.558-2.34.25-3.56-1.212-3.554-2.513.006-1.25.461-2.352 2.822-2.219a4.8 4.8 0 0 1-.186-1.65 1.69 1.69 0 0 1 1.766-1.404c.519.062 1.007.28 1.401.623.508.546.648 1.34 1.493 1.932a7.2 7.2 0 0 0 3.232.616 60 60 0 0 1 7.34-3.348c1.551-.512 5.96-1.286 5.96-1.286l.137-10.793c1.244.15 2.499.19 3.75.119 3.217-.096 11.67 1.205 11.67 1.205l6.018-.411s10.04-1.51 14.815-1.982a48 48 0 0 1 7.253-.283c3.639.19 6.764 1.09 10.185 1.274 2.563.254 5.14.348 7.716.283 4.105-.235 11.444.042 13.776-3.659a2.355 2.355 0 0 0-.609-3.015 3.71 3.71 0 0 0-3.628-1.008c-.839.177-1.904.764-2.009 1.486a1.45 1.45 0 0 0 .373 1.2c.36.47.805.87 1.312 1.178a6.14 6.14 0 0 1-2.88-.501 5.5 5.5 0 0 1-1.332-2.471 2.42 2.42 0 0 0-.629 1.787 2.73 2.73 0 0 0 .758 1.958 4.95 4.95 0 0 1-2.786-1.07 8.1 8.1 0 0 1-1.101-2.556 2.87 2.87 0 0 0-.884 1.845c-.032.835.361 1.201.56 2.078a6 6 0 0 1-2.593-1.426 7.7 7.7 0 0 1-.874-2.606c-2.136.488-6.215 1.179-10.656 2.054-3.128.616-7.906 1.563-11.283 1.952-5.8.669-10.022.323-13.587-1.065-1.855-.722-2.691-1.417-3.17-3.057a3.75 3.75 0 0 1 1.05-3.277 11.67 11.67 0 0 1 6.004-3.069 91 91 0 0 1 10.44-1.952 40 40 0 0 1 11.239.562c1.673.193 3.473-.122 4-.701.443-.486 1.177-1.009.19-2.18.89.1 1.672.638 2.083 1.434.34.576-.08 1.907-.08 1.907z" style="fill:gold;stroke:#806600;stroke-width:.31566;stroke-miterlimit:128.6234894"/><path d="M483.819 148.507c1.18.735 2.478-.228 2.745-.326a3.1 3.1 0 0 1-.948-1.343 8.5 8.5 0 0 1-.37-2.292c-.087-1.962.694-2.266.72-2.117a8.8 8.8 0 0 0 1.838-.86 2.9 2.9 0 0 0 .888-1.705 6.1 6.1 0 0 0-.161-2.328c-1.888-.109-2.368.142-2.81.72a8.6 8.6 0 0 0-.303-1.844 5.7 5.7 0 0 0-.742-1.514 2.6 2.6 0 0 0-.643-.633c-.012.5-.461.957-.691 1.306a7.9 7.9 0 0 0-.672-2.603 2.085 2.085 0 0 0-3.147-.92 7.9 7.9 0 0 0-1.969 1.833 2.8 2.8 0 0 1 .122-1.474 2.6 2.6 0 0 0-.882.187 5.7 5.7 0 0 0-1.441.876 8.6 8.6 0 0 0-1.247 1.39c-.031-.757-.29-1.193-1.98-2.12a6.1 6.1 0 0 0-1.39 1.876 2.9 2.9 0 0 0-.17 1.913 8.8 8.8 0 0 0 1.085 1.716c.103-.113.597.566-.534 2.171a8.5 8.5 0 0 1-1.547 1.732c-.442.34-.968.554-1.522.62.42 1.095.536 1.543 2.138 1.754-3.651 2.62-4.066 6.8-1.263 10.361a8.2 8.2 0 0 1 1.178-1.771 5.13 5.13 0 0 0 1.09 3.12c.338.346.502 2.266.99 2.87q.506.603 1.072 1.15s.486-1.523 1.199-1.76c.717-.238 2.057-.622 2.5-.762a9.3 9.3 0 0 0 2.474-2.176l-.28 2.318c4.803-1.703 5.9-4.964 4.67-9.364h.003z" style="fill:gold"/><path d="M474.507 142.592a9.8 9.8 0 0 1-.967 4.835l3.122 1.252 3.08.355c-.25-1.262.984-3.727 1.6-4.566l-2.265.049-1.011-1.01-1.85.41z" style="fill:#504416"/><path d="M475.122 143.371a3.8 3.8 0 0 0-.096 2.334l.9-1.93zm4.372 1.423-.253 2.114a3.82 3.82 0 0 0 1.149-2.033l-.895-.08v-.001zm-4.464 1.488a3.82 3.82 0 0 0-1.15 2.034l.896.08zm3.928 1.121-.901 1.93.803.404a3.8 3.8 0 0 0 .097-2.334zm-3.536-10.219c-.585-.032-.997.18-1.13.644-.176.62.258 1.287 1.175 1.549a1.6 1.6 0 0 0 1.988-.826c.177-.62-.477-.99-1.395-1.252q-.313-.091-.638-.116zm6.431 1.862c-.46-.019-.794.115-.905.502a1.597 1.597 0 0 0 1.253 1.75c.918.26 1.639-.074 1.816-.695.177-.62-.306-1.12-1.223-1.382a4 4 0 0 0-.94-.174z" style="fill:#fff"/><path d="M475.432 137.027a1.8 1.8 0 0 0-.582.057.99.99 0 0 0-.7.7c-.098.359-.023.743.203 1.038.27.35.65.598 1.078.708a1.72 1.72 0 0 0 2.168-.941.85.85 0 0 0-.339-.916 3.4 3.4 0 0 0-1.149-.528 3 3 0 0 0-.68-.12v.002zm-.01.305q.309.023.605.11c.374.093.728.255 1.044.477a.49.49 0 0 1 .231.586 1.456 1.456 0 0 1-1.787.729 1.66 1.66 0 0 1-.914-.58.9.9 0 0 1-.157-.785.67.67 0 0 1 .501-.496q.234-.06.474-.042zm6.44 1.563a2 2 0 0 0-.282.011.85.85 0 0 0-.771.6 1.72 1.72 0 0 0 1.345 1.943 1.98 1.98 0 0 0 1.288-.032c.348-.132.614-.418.72-.774a.99.99 0 0 0-.225-.964 2.35 2.35 0 0 0-1.103-.615 4 4 0 0 0-.972-.17zm-.015.312c.306.014.61.066.903.154.357.083.686.26.953.512.179.18.242.445.164.686a.89.89 0 0 1-.547.584 1.67 1.67 0 0 1-1.082.01 1.455 1.455 0 0 1-1.134-1.562c.074-.254.22-.342.507-.375q.117-.012.235-.009z" style="fill:#d1b948"/><path d="M475.46 135.805a1.52 1.52 0 0 0-1.227.309c-.184.176-.213.739-.213.739l.658.008.739.212 1.595.715 1.748-.1s-.955-.39-1.422-.655c-.631-.357-1.16-1.13-1.88-1.226zm8.374 2.39c-.604-.155-1.296.167-1.93.138-.535-.022-1.59-.206-1.59-.206l1.431 1.009 1.733.234.72.206.563.34s.273-.493.212-.739a1.52 1.52 0 0 0-1.137-.985zm-10.142 9.283c-1.676 4.056 4.81 6.106 5.759 1.644a13.1 13.1 0 0 1-5.759-1.644" style="fill:gold"/><path d="m473.535 147.065-.132.322a3.22 3.22 0 0 0 .084 2.862 3.342 3.342 0 0 0 6.257-1.051l.077-.338-.353-.021a12.8 12.8 0 0 1-5.638-1.61l-.293-.163zm.202.496a16.6 16.6 0 0 0 5.712 1.584 3.9 3.9 0 0 1-1.329 2.102c-.81.338-1.706.41-2.56.206a4.2 4.2 0 0 1-1.941-1.69 3.1 3.1 0 0 1 .119-2.203z" style="fill:#806600"/><path d="M476.36 143.93c-.808 2.668-1.51 5.684-.964 8.461 1.931-2.07 2.918-4.977 3.64-7.67.004-.109-.53-.348-.598-.434a8 8 0 0 1-.452-.71q-.397.255-.844.413a2.4 2.4 0 0 1-.782-.062z" style="fill:#377bc8;stroke:#2c5aa0;stroke-width:.31566;stroke-miterlimit:128.6234894"/><path d="M481.227 131.72a7.4 7.4 0 0 0-1.76.315 7.9 7.9 0 0 0-1.968 1.832 2.8 2.8 0 0 1 .122-1.473c-.303.01-.601.072-.882.186a5.7 5.7 0 0 0-1.441.876 8.6 8.6 0 0 0-1.247 1.39c.612-.021 1.974-1.25 2.5-1.13.448.1.14 1.297.57 1.351.588.074 1.11-.846 1.843-1.49.649-.572 1.55-1.006 1.982-.866a2.92 2.92 0 0 1 1.202 1.819c.27.979.47 2.034.92 2.254.448.218.835-.996 1.29-.843.54.18.79 2.03 1.306 2.3a8.6 8.6 0 0 0-.302-1.843 5.7 5.7 0 0 0-.742-1.514 2.6 2.6 0 0 0-.642-.632c-.012.5-.462.957-.692 1.306a7.9 7.9 0 0 0-.672-2.603 7.4 7.4 0 0 0-1.386-1.234zm-7.786 6.838c-.666 1.13.17 2.213 1.517 2.455l-.522 1.327.765 1.497 1.393.486 1.318-.521.876 1.19 1.223.276 1.574-.947.63-1.066.983-.06.84-.404.3-1.047a2.74 2.74 0 0 1-3.136.45 2.52 2.52 0 0 1-.54 1.656 1.26 1.26 0 0 1-1.28.27 2.73 2.73 0 0 1-1.302-1.153c-.572.343-1.062.603-1.416.488a1.74 1.74 0 0 1-1.275-1.19 1.89 1.89 0 0 1 .566-1.685c-2.93-.774-1.88-1.554-2.515-2.02v-.002zm-1.514.38a23.5 23.5 0 0 1-2.355 3.212c-.443.34-.969.554-1.522.62.42 1.095.535 1.543 2.137 1.754-3.651 2.62-4.066 6.8-1.263 10.361a8.2 8.2 0 0 1 1.178-1.771 5.13 5.13 0 0 0 1.09 3.121c.338.345.503 2.265.991 2.869q.506.603 1.072 1.15s.486-1.522 1.198-1.76c.718-.238 2.057-.622 2.5-.761a9.3 9.3 0 0 0 2.474-2.177l-.277 2.319c4.803-1.703 5.9-4.965 4.67-9.365 1.18.735 2.478-.228 2.745-.326a3.1 3.1 0 0 1-.948-1.343 9.2 9.2 0 0 1-.37-2.292l-.112-1.444s-.543 1.621-.672 2.073a10 10 0 0 0 .045 2.056 6.5 6.5 0 0 1-2.254-1.129c.41 1.581.715 3.187.914 4.808 0 1.06-.19 2.11-.56 3.102a8.3 8.3 0 0 1-2.01 2.08q.278-1.388.392-2.798c-.011-1.016-.414-3.595-.414-3.595a19.6 19.6 0 0 1-1.035 3.431c-.52.896-1.477 2.477-1.477 2.477.267-2.527.135-2.673-.193-3.629 0 0-.598 3.145-1.709 4.496a9.4 9.4 0 0 1-1.931.921 2.13 2.13 0 0 0-.874.722s-.63-1.76-.804-2.166a25 25 0 0 1-1.42-2.79c-.386-1.387 1.475-4.371 1.475-4.371-.69.012-1.379.821-2.122 1.713a22 22 0 0 0-1.634 2.052 19 19 0 0 1-.585-2.811c.045-.926.33-1.824.826-2.607.76-1.27 4.104-3.875 4.104-3.875a5.3 5.3 0 0 1-3.498.068s1.38-1.62 1.607-2a5.2 5.2 0 0 0 .622-2.395zm6.23 1.332q-.783 0-1.562.08l.093.599.629.244.85 1.265 2.165-.58.29-.496a7.7 7.7 0 0 0-1.87-1.055 3 3 0 0 0-.593-.054l-.001-.003z" style="fill:gold"/><path d="M483.819 148.507c1.18.735 2.478-.228 2.745-.326a3.1 3.1 0 0 1-.948-1.343 8.5 8.5 0 0 1-.37-2.292c-.087-1.962.694-2.266.72-2.117a8.8 8.8 0 0 0 1.838-.86 2.9 2.9 0 0 0 .888-1.705 6.1 6.1 0 0 0-.161-2.328c-1.888-.109-2.368.142-2.81.72a8.6 8.6 0 0 0-.303-1.844 5.7 5.7 0 0 0-.742-1.514 2.6 2.6 0 0 0-.643-.633c-.012.5-.461.957-.691 1.306a4.7 4.7 0 0 0-2.058-3.837c-1.686.038-2.66.859-3.73 2.145a2.8 2.8 0 0 1 .123-1.473 2.6 2.6 0 0 0-.882.186 5.7 5.7 0 0 0-1.442.876 8.6 8.6 0 0 0-1.247 1.391c-.031-.757-.29-1.193-1.98-2.12a6.1 6.1 0 0 0-1.39 1.875 2.9 2.9 0 0 0-.17 1.914 8.8 8.8 0 0 0 1.085 1.715c.103-.112.597.567-.534 2.172a8.5 8.5 0 0 1-1.546 1.732c-.443.34-.969.553-1.523.62.421 1.095.536 1.543 2.138 1.754-3.651 2.62-4.065 6.8-1.262 10.361.313-.64.71-1.235 1.178-1.771a5.13 5.13 0 0 0 1.089 3.12c.338.346.502 2.266.99 2.87q.506.603 1.073 1.15s.485-1.523 1.198-1.76c.717-.238 2.058-.622 2.5-.762a9.3 9.3 0 0 0 2.474-2.176l-.28 2.318c4.804-1.703 5.9-4.964 4.67-9.364z" style="fill:none;stroke:#806600;stroke-width:.31566;stroke-miterlimit:128.6234894"/><path d="M472.127 134.053a3.86 3.86 0 0 0-.656 1.964 7.5 7.5 0 0 0 1.15 2.001c.307-.89.491-1.819.548-2.76-.074-.548-1.042-1.205-1.042-1.205m2.603 2.568a1 1 0 0 0-.42.11c-.286.14-.483.183-.605.61a3.1 3.1 0 0 0 .87-.316.45.45 0 0 1 .361.039q.703.406 1.45.718c.757.121 1.53.092 2.276-.086-.053.325-.156.64-.305.933-.093.135-.767.392-1.078.687a10 10 0 0 0-.437.438 1.3 1.3 0 0 0-.302.43 1.55 1.55 0 0 0-.058.738l.015.203.193.061a1.28 1.28 0 0 1 1.018 1.052l.028.087.064.051q.095.09.2.164a.6.6 0 0 0 .234.087c.158.018.187-.013.332-.005l.122.009.097-.084a1.29 1.29 0 0 1 1.426-.354l.19.048.125-.164a1.6 1.6 0 0 0 .333-.66c.039-.186-.051-.28-.086-.467a9 9 0 0 0-.139-.603c-.11-.414-.453-1.171-.46-1.333.019-.312.087-.619.202-.91a5.9 5.9 0 0 0 1.882 1.356q.8.129 1.611.154c.196.035.283.093.325.157l.574.727a1.08 1.08 0 0 0-.192-.968c-.17-.27-.322-.242-.594-.293-.548-.103-1.18-.039-1.554-.145a4.8 4.8 0 0 1-1.809-1.247l-.26-.228-.197.29a2.47 2.47 0 0 0-.315 1.386q.18.703.448 1.378c.055.203.103.402.132.56q.025.142.024.287a1.2 1.2 0 0 1-.141.27 2.68 2.68 0 0 0-1.883.564c-.074.001-.177-.005-.17-.003-.01-.006-.036-.032-.058-.051a3.1 3.1 0 0 0-1.415-1.6q-.01-.154.021-.305.08-.12.177-.229c.11-.119.254-.26.408-.406.305-.29.945-.575 1.13-.846a2.5 2.5 0 0 0 .464-1.345l-.02-.35-.34.055a4.3 4.3 0 0 1-2.102.113c-.374-.11-.877-.496-1.397-.697a1 1 0 0 0-.4-.07zm-1.248 1.65a1.85 1.85 0 0 0-.293 1.97c.296.476.765.82 1.31.956-.033.093-.042.106-.081.241a2.5 2.5 0 0 0-.142.966c.087.647.423 1.235.937 1.638.43.349.976.523 1.529.489.298-.026.587-.115.848-.261q.082-.043.158-.093c.151.335.389.625.688.84.45.32 1.003.459 1.55.389a2.2 2.2 0 0 0 2.049-1.793c.028-.106.023-.11.041-.193a1.9 1.9 0 0 0 1.639-.174c.552-.43.849-1.11.788-1.808-.451.229-.049.9-1.038 1.513-.43.251-.961.251-1.39 0l-.46-.377.03.653s-.039.222-.113.484q-.09.362-.28.682a2.1 2.1 0 0 1-1.357.666 1.65 1.65 0 0 1-1.11-.289 2.3 2.3 0 0 1-.594-.848l-.151-.632-.319.354q-.226.167-.487.276c-.185.1-.388.164-.597.187-.396.022-.787-.1-1.101-.34a2.47 2.47 0 0 1-.84-1.423q.006-.373.122-.727.079-.254.232-.47l.26-.337-.526.032a1.73 1.73 0 0 1-1.215-.777c-.654-.723-.065-1.248-.09-1.792zm14.254.238s-1.168.048-1.522.474a10.4 10.4 0 0 0-.99 2.633 7.6 7.6 0 0 0 2.033-1.093c.34-.615.506-1.311.479-2.014" style="fill:#806600"/><path d="M475.93 137.601a.648.648 0 0 0-.182 1.271.648.648 0 1 0 .182-1.27zm6.465 1.85a.648.648 0 0 0-.164 1.272.648.648 0 1 0 .163-1.271h.001z" style="fill:#2b2200"/><path d="M451.195 159.483c-.575.222-1.414-.306-3.13 1.19a2.93 2.93 0 0 1 2.793 1.11 1.15 1.15 0 0 0 1.056-.676 1.213 1.213 0 0 0-.719-1.624zm40.383 1.913c-.575.222-1.415-.299-3.126 1.201a2.93 2.93 0 0 1 2.796 1.102c.455.001.867-.265 1.054-.68a1.214 1.214 0 0 0-.724-1.623zm-43.354 2.221c-.44.43-1.418.28-2.404 2.33a2.93 2.93 0 0 1 3.004-.083c.42-.176.695-.584.703-1.039a1.213 1.213 0 0 0-1.303-1.208zm44.055 3.181c-.415.456-1.4.366-2.258 2.472a2.94 2.94 0 0 1 2.993-.266 1.15 1.15 0 0 0 .638-1.08 1.213 1.213 0 0 0-1.373-1.127zm-40.94 1.729a1.5 1.5 0 0 0-.752.187c-.18.589-1.11.927-.987 3.2a2.93 2.93 0 0 1 2.593-1.518 1.15 1.15 0 0 0 .116-1.25 1.2 1.2 0 0 0-.97-.618zm87.686.244c-.181.01-.36.05-.528.116-.245.566-1.204.801-1.33 3.073a2.93 2.93 0 0 1 2.743-1.226c.32-.323.419-.806.251-1.229a1.17 1.17 0 0 0-1.138-.733h.002zm-41.772 1.536a1.53 1.53 0 0 0-.728.264c-.116.605-1.006 1.04-.644 3.286a2.93 2.93 0 0 1 2.419-1.783 1.15 1.15 0 0 0-.016-1.255 1.2 1.2 0 0 0-1.03-.512zm52.028.155a1.23 1.23 0 0 0-1.182.73c.18.59-.404 1.389.963 3.207a2.94 2.94 0 0 1 1.308-2.705 1.15 1.15 0 0 0-.599-1.102 1.5 1.5 0 0 0-.49-.131zm-5.612.659a1.38 1.38 0 0 0-.88.46c.02.615-.752 1.234.094 3.346a2.93 2.93 0 0 1 1.968-2.27 1.15 1.15 0 0 0-.29-1.22 1.25 1.25 0 0 0-.89-.315z" style="fill:#377bc8;stroke:#2c5aa0;stroke-width:.31566;stroke-miterlimit:128.6234894"/><path d="M478.884 198.432a6.3 6.3 0 0 1-2.22-.384 5.8 5.8 0 0 1-1.43-1.834c-.842.147-1.7.184-2.551.111a6.8 6.8 0 0 1-2.042-1.142 3.9 3.9 0 0 0 2.18-.869 10.2 10.2 0 0 1-2.429-.421 11.2 11.2 0 0 1-2.02-1.275c.716-.178 1.49-.154 2.053-.855a8.8 8.8 0 0 1-2.202-.237 8 8 0 0 1-1.774-1.215 2.86 2.86 0 0 0 2.16-.9 8 8 0 0 1-2.185-.203 11.2 11.2 0 0 1-2.272-1.528c.836.02 1.66-.199 2.377-.63l-.486-.986c-.586-1.19-1.814-.77-2.63-1.099a2.26 2.26 0 0 1-1.295-1.694c-.077-.868.367-2.195 2.328-1.918-.975-1.486.041-2.553 1.077-2.98.997-.411 1.877-.3 2.554 1.327a5.3 5.3 0 0 1 1.402-.845 1.426 1.426 0 0 1 1.703.718c.123.374.112.78-.031 1.146-.266.521-.852.878-1.043 1.641a4.6 4.6 0 0 0 .58 2.37s3.77 2.985 5.503 4.62c.922.87 2.597 2.753 2.597 2.753l.093-.054h3.736l.333 6.303z" style="fill:gold;stroke:#806600;stroke-width:.25321;stroke-miterlimit:103.17453"/><path d="M468.488 177.62c.622.6.865 1.494.632 2.326a.92.92 0 0 0 .943.352.974.974 0 0 0 .696-1.244c-.418-.263-.486-1.053-2.271-1.434zm-4.267.47a4.4 4.4 0 0 0-1.099.118 2.35 2.35 0 0 1 1.54 1.855.92.92 0 0 0 1.003-.07.973.973 0 0 0 .119-1.42c-.368-.049-.679-.45-1.563-.483zm-1.264 4.007c-.926-.09-1.85.19-2.57.778a2.36 2.36 0 0 1 2.172 1.045.92.92 0 0 0 .883-.483.973.973 0 0 0-.485-1.34z" style="fill:#377bc8;stroke:#2c5aa0;stroke-width:.25321;stroke-miterlimit:103.17453"/><path d="M497.369 201.326c-.659-.194-1.462-1.058-2.16-1.054a1.93 1.93 0 0 0-1.625.966 1.7 1.7 0 0 0 .376 1.437l1.267.871a4.2 4.2 0 0 0-.853 1.424c-.018.44.162.864.49 1.155.417.459.52.636 1.183.733.447.009.895-.03 1.334-.116-.016.367.055.734.209 1.068a2.2 2.2 0 0 0 1.947 1.064c.48.026.935-.22 1.178-.636.266-.375.214-1.335.646-1.73l1.76-1.607c.759.46.739 1.145.644 1.852a6.6 6.6 0 0 0 1.466-1.225c.263-.564.428-1.17.488-1.79.64.445.954 1.228.799 1.992a7.4 7.4 0 0 0 1.52-1.224 7.6 7.6 0 0 0 .775-1.804c.52.575.687 1.387.434 2.12a6.1 6.1 0 0 0 1.628-1.555c.202-.484.347-.99.434-1.507 1.562.114 2.57-.566 2.638-1.27.055-.545-.564-1.288-1.82-1.504a6.7 6.7 0 0 1-.64-1.206 1.67 1.67 0 0 1 0-1.102 4.56 4.56 0 0 1 1.481-1.792c.852-.6 1.755-1.122 2.7-1.561l-.541-2.71-6.3-.965-6.962 1.716c1.27.583 4.112 2.574 3.88 3.328-.088.282-.692.55-.981.928-.214.278-.052.723.16 1.01.293.402.992.495 1.217.873a.79.79 0 0 1 .054.965c-.477.633-2.08.899-2.858 1.24-1.417.622-3.817 1.978-3.817 1.978a5.2 5.2 0 0 1-2.15-.362z" style="fill:gold;stroke:#806600;stroke-width:.25321;stroke-miterlimit:103.17453"/><path d="M510.103 192.798s-.122 2.253-1.062 2.83c-.422.266-.94.33-1.415.178a1.76 1.76 0 0 1-.884-1.061c-.101-.278-.266-.973-.266-.973a9 9 0 0 0-2.21-.708 13.3 13.3 0 0 0-3.361.62 7.7 7.7 0 0 1 2.476-3.096l3.714-.265 3.007 2.476v-.001z" style="fill:gold;stroke:#806600;stroke-width:.25321;stroke-miterlimit:103.17453"/><path d="M517.296 177.82c.88-.116 2.684-.55 3.29-1.267.282-.335 1.074-1.268 1.074-1.268a4.87 4.87 0 0 1-2.954 4.4 9.14 9.14 0 0 1-4.9.746 19 19 0 0 1-2.954-.746c1.052 1.365.517 2.33-.806 2.983 0 0 .196-1.308-.2-1.492-.858-.396-1.824.122-2.734.726-.72.427-1.54.65-2.376.648a6.4 6.4 0 0 1-2.843-.481c-.645-.271-1.762-1.305-2.236-1.203-1.022.222-2.313.347-2.895 1.306-.19.38-.19.827 0 1.206a3.15 3.15 0 0 0 2.08 1.407c2.148.583 4.4.66 6.582.224 2.388-.408 5.176-1.227 7.564-1.721 2.367-.49 5.418-1.415 7.212-1.863a22.5 22.5 0 0 1 6.963-.857c4.155.075 5.514 2.524 5.388 5.198-.129 2.747-2.633 3.99-4.776 4.762-3.769 1.354-8.942.583-12.194.49 0 0 1.09 1.014 1.585 1.478.579.543.868 1.679 1.584 1.956.982.38 2.484-.373 3.521-.44a37 37 0 0 1 3.918.098 2.47 2.47 0 0 1 1.014-.851c.31-.096.64-.096.95-.001.447.188.748.773.56 1.86.187.28.462.49.783.593.5.119 1.084.014 1.37.114q.648.283 1.232.684a7 7 0 0 0-1.144.511 2.8 2.8 0 0 0-.537.671 5.2 5.2 0 0 1 1.568.248c.38.24.704.558.952.933a1.9 1.9 0 0 0-.983.17 5 5 0 0 0-.64.639s1.294-.116 1.736.31q.465.494.84 1.058a4.3 4.3 0 0 0-1.03.09q-.317.141-.594.347a4.5 4.5 0 0 1 1.288 1.12c.226.489.36 1.016.392 1.555a6 6 0 0 0-.851-.6 1.9 1.9 0 0 0-.662-.085l.21 2.206c.051.543.736 1.13.858 1.55a1.19 1.19 0 0 1-.16 1.192c-.39.54-1.076.78-1.717.597a2.35 2.35 0 0 1-.839-.555q-.241.513-.597.956c-.403.376-.576.329-1.102.306a1.33 1.33 0 0 1-1.041-.425 4.6 4.6 0 0 1-.544-1.488l-1.24.272c-.471-.05-.9-.299-1.175-.685a1.82 1.82 0 0 1 .16-1.7c.35-.465 1.323-.49 1.818-.745.498-.335.921-.77 1.244-1.276a32 32 0 0 1-2.967-2.87c-.492-.605-1.34-2.02-1.34-2.02s-2.64.884-3.636 1.063a16.9 16.9 0 0 1-5.072 0c-3.754 0-6.252-6.404-9.665-7.867a3.33 3.33 0 0 0-2.622-.105c-3.955.98-8.178 6.548-12.096 7.696a30 30 0 0 1-4.976.638 5.4 5.4 0 0 1-1.073 1.696 4.75 4.75 0 0 1-1.99.437 9 9 0 0 1-.782 2.176 5.5 5.5 0 0 1-1.633 1.233 3.74 3.74 0 0 0 .031-2.18 8.7 8.7 0 0 1-1.174 1.855 9 9 0 0 1-1.734 1.16c.24-.669.24-1.4 0-2.068a7.7 7.7 0 0 1-.946 1.741 6.5 6.5 0 0 1-1.602.98 2.77 2.77 0 0 0 0-2.177 6.9 6.9 0 0 1-.913 1.742 9 9 0 0 1-2.028 1.265 4.17 4.17 0 0 0 .296-2.245l-.974-.002c-1.176-.003-1.251 1.197-1.8 1.743a1.86 1.86 0 0 1-1.83.381c-.738-.295-1.394-1.331-.498-2.854a1.995 1.995 0 0 1-2.354-2.016c.003-1.002.305-1.886 1.87-1.78a4.7 4.7 0 0 1-.125-1.324c.111-.635.56-1.187 1.17-1.125.357.056.685.233.929.5.336.437.43 1.074.989 1.55.654.359 1.395.53 2.14.494a37 37 0 0 1 4.862-2.686 39 39 0 0 1 3.948-1.032l.09-8.657c.822.12 1.655.152 2.484.095 2.595.145 5.178.468 7.73.966l3.986-.329s6.65-1.211 9.813-1.59a26.5 26.5 0 0 1 4.804-.227c2.41.153 4.48.874 6.746 1.022 1.695.204 3.404.28 5.11.227 2.72-.188 7.581.034 9.126-2.935a2.423 2.423 0 0 0-2.807-3.227c-.555.142-1.261.613-1.33 1.192-.046.377.041.759.247 1.078.206.353.507.64.87.83a2.54 2.54 0 0 1-1.718-.287 6.5 6.5 0 0 1-1.073-2.098 2.2 2.2 0 0 0-.416 1.434c-.017.565.16 1.12.502 1.57a2.94 2.94 0 0 1-1.846-.858 7.3 7.3 0 0 1-.73-2.05 2.53 2.53 0 0 0-.585 1.48 7 7 0 0 0 .371 1.667 3.8 3.8 0 0 1-1.717-1.145 7.1 7.1 0 0 1-.579-2.09c-1.415.392-4.116.946-7.058 1.647-2.072.495-5.237 1.255-7.474 1.567-3.841.536-6.637.259-8.999-.855a3.18 3.18 0 0 1-2.1-2.452 3.43 3.43 0 0 1 .696-2.628 7.4 7.4 0 0 1 3.977-2.462 51 51 0 0 1 6.914-1.566 22 22 0 0 1 7.445.45c.923.206 1.89 0 2.65-.561a1.193 1.193 0 0 0 .124-1.748c.636.1 1.165.542 1.38 1.15a3.15 3.15 0 0 1-.052 1.53z" style="fill:gold"/><path d="M521.664 175.286a11.5 11.5 0 0 1-2.046 2.623 8.5 8.5 0 0 1-3.65 1.36 13.4 13.4 0 0 1-3.65-.291 16.6 16.6 0 0 1-3.49-1.117c.45.682.777 1.438.963 2.234a4.75 4.75 0 0 0-2.015-.121c-.549.18-1.59.688-2.12.935-.824.383-2.147-.007-3.024-.134-.904-.132-1.222-.614-2.036-.352l-.793.255 2.568 1.506 2.567.389 1.604-.34 1.765-1.07 1.404-.097.401.631.042 1.117.922-.923.24-.777-.281-1.36 1.885.583 2.407.193 2.487-.486 2.207-1.068 1.082-1.36.562-2.332zm6.572 6.758a3.27 3.27 0 0 0-1.677.533 2.72 2.72 0 0 0-.668 2.266 20.5 20.5 0 0 1-1.012-2.729c-.92.945-.97 2.305-1.222 3.423a19.3 19.3 0 0 1-1.07-3.145 5.97 5.97 0 0 0-1.68 2.867 5.9 5.9 0 0 1-.592-2.59c-.137.052-.222.09-.34.137-3.155.429-10.257 2.745-15.77 3.3-3.055.308-6.39.106-8.315-1.27a3.67 3.67 0 0 1-1.578-2.554l-.283 1.304.906 1.715 2.04 1.166 3.852.892 4.192-.412 2.38-.274 12.455-2.867.27 1.615.84 1.064 1.127.509-.439-1.434.173-.97.439-.626.63 1.804.86.717 1.164.3-.477-.878-.04-1.156.363-.856.592 1.526.688.578 1.546.14-.954-1.087-.191-.971.63-.787 1.45-.346 1.127.439.879.833.267 1.295-.23.965c2.174-1.925.073-4.516-2.33-4.435zm2.331 4.434c-.02.017-.036.036-.056.052l.038.023zm1.914-2.424a5.64 5.64 0 0 1-1.416 3.47c-3.762 4.105-12.158 2.734-16.187 1.329l-1.813-.288a19 19 0 0 0-.9-.386 10 10 0 0 0-2.542-.24 26.5 26.5 0 0 0-4.804.227c-3.163.379-9.813 1.59-9.813 1.59l-3.986.329a57 57 0 0 0-7.73-.966 12 12 0 0 1-2.484-.096l-.015 1.46s1.834.482 3.539.827l-.495.034-2.467 4.357q-.166-1.032-.446-2.038l-.258 3.28-.473.836-2.897.724-2.946 1.338-2.313 1.656-2.314-.637-.894-1.593c.076.85.326 1.673.735 2.42.644.713 2.525.829 2.525.829a38 38 0 0 1 4.208-2.612 13 13 0 0 1 1.973-.678q.398.463.888.828c.33.238 1.04.61 1.04.61.083-2 1.236-1.977 2.97-3.025l.177 1.223s3.265-1.115 4.153-2.11a6.1 6.1 0 0 0 1.427-2.377 9.5 9.5 0 0 0 .113-2.625 78 78 0 0 0 2.217-.052c3.334-.118 6.91-1.628 10.225-2.075 2.655-.359 5.591-.88 8.007-.43 2.03.378 2.808 1.19 4.558 2.489 1.472 1.093 2.965 4.033 4.937 4.033 0 0 1.115-.07 1.842-.173.916-.129 1.56-.513 2.48-.6a15 15 0 0 1 2.972.134c.811-1.144 1.226-1.168 1.459-1.022.513.32.583 1.03.121 1.749a2.68 2.68 0 0 0 2.389.936c-.548.416-.957.99-1.171 1.644a3.26 3.26 0 0 1 2.066.268 4.1 4.1 0 0 0-1 1.68 6.3 6.3 0 0 1 2.053.253c-.594.344-1.041.508-1.14.985a5.9 5.9 0 0 1 1.602 1.186c-.627.09-1.01.09-1.254.578l1.195 2.106-.16-1.961a1.9 1.9 0 0 1 .662.085q.451.263.85.6a4.3 4.3 0 0 0-.391-1.556 4.5 4.5 0 0 0-1.288-1.12q.277-.206.595-.345a4.3 4.3 0 0 1 1.029-.09 8 8 0 0 0-.84-1.059c-.442-.427-1.736-.31-1.736-.31a5 5 0 0 1 .64-.639c.307-.143.647-.201.984-.17a3.2 3.2 0 0 0-.952-.933 5.3 5.3 0 0 0-1.568-.248c.144-.25.325-.476.536-.67a7 7 0 0 1 1.144-.512 7.3 7.3 0 0 0-1.232-.684c-.285-.101-.87.004-1.37-.114a1.5 1.5 0 0 1-.782-.593c.188-1.087-.114-1.67-.56-1.86a1.64 1.64 0 0 0-.95 0c-.41.187-.76.482-1.015.852a37 37 0 0 0-3.917-.098c-1.038.067-2.54.82-3.521.44-.716-.277-1.006-1.413-1.585-1.956-.495-.463-1.585-1.477-1.585-1.477-.028-.042-.049-.07-.074-.109l3.703.232 3.733.057h2.35c2.702-.66 5.85-1.38 7.142-4.687l.046-2.456zm-27.947 6.304a7.6 7.6 0 0 0-2.974.684 37.3 37.3 0 0 0-6.482 4.374 31 31 0 0 1-3.922 2.341 23 23 0 0 1-5.73.863s-.53 2.016-1.242 2.4c-.63.34-2.04-.43-2.04-.43q.02.88-.06 1.755a7.2 7.2 0 0 1-.62 1.612 5.7 5.7 0 0 0-.326-1.182 6.5 6.5 0 0 0-1.094-1.253 12 12 0 0 1-.444 1.683 13 13 0 0 1-1.123 1.826 6.6 6.6 0 0 0-.237-1.002 10.4 10.4 0 0 0-.917-1.54 17 17 0 0 1-.503 1.754q-.315.684-.71 1.325a6 6 0 0 0-.237-.644 15 15 0 0 0-1.006-1.54q-.366.952-.828 1.862a11 11 0 0 1-.71 1.003 3.3 3.3 0 0 0-.325-1.504 1.5 1.5 0 0 0-1.271-.394c-1.294.247-1.798 1.53-2.661 2.67-.186.245-.585.387-.431.108a.94.94 0 0 0-.111-1.048.66.66 0 0 0-.818-.237c-.4.248.95-1.671.917-1.671a10.7 10.7 0 0 1-2.011-.109c-.375-.087.33.122.242-1.003-.082-1.061-.914-.957-.684-1.039a2.9 2.9 0 0 1 1.684.253s-.485-.503-.267-.952c.1-.203.676-.62.767-1.149a1.39 1.39 0 0 0-.515-1.317c-.273.662-1.06.49-1.17 1.125-.024.445.018.892.124 1.325-1.564-.106-1.866.777-1.87 1.78a1.996 1.996 0 0 0 2.355 2.015c-.896 1.523-.24 2.56.499 2.854a1.86 1.86 0 0 0 1.83-.381c.547-.546.622-1.746 1.798-1.743l.974.002c.11.761.008 1.538-.295 2.245a9 9 0 0 0 2.028-1.266c.386-.533.693-1.12.913-1.74a2.77 2.77 0 0 1 0 2.175 6.5 6.5 0 0 0 1.6-.979 7.7 7.7 0 0 0 .947-1.741c.24.668.24 1.4 0 2.068a9 9 0 0 0 1.734-1.16 8.7 8.7 0 0 0 1.174-1.855 3.74 3.74 0 0 1-.033 2.18 5.5 5.5 0 0 0 1.633-1.233c.354-.689.617-1.42.782-2.177.687 0 1.366-.148 1.99-.437a5.4 5.4 0 0 0 1.074-1.696 30 30 0 0 0 4.976-.637c3.918-1.149 8.14-6.716 12.096-7.697a3.33 3.33 0 0 1 2.621.106c3.414 1.462 5.911 7.867 9.665 7.867 1.69 0 2.616.442 5.072 0 .996-.18 3.637-1.063 3.637-1.063s.847 1.415 1.34 2.02a32 32 0 0 0 2.966 2.87 4.4 4.4 0 0 1-1.244 1.276c-.495.255-1.467.28-1.819.744a1.81 1.81 0 0 0-.16 1.7c.276.387.705.636 1.177.685l1.239-.272a4.6 4.6 0 0 0 .544 1.488c.254.324.631.527 1.04.56.42.057.838-.11 1.103-.44q.355-.444.597-.957c.236.244.522.433.839.555a1.58 1.58 0 0 0 1.717-.597c.276-.463-.072-1.625-.224-2.154a10 10 0 0 0 .082 1.513 1.06 1.06 0 0 0-2.018.039 1.84 1.84 0 0 1-.748-1.013l-.307 1.283c-.158.242-.034.575-.338.75-.047-1.236-.852-1.362-1.562-1.042a2.45 2.45 0 0 1-.106-1.193 9 9 0 0 1-1.199.472c-.299.083-.103-.209-.183-.566-.096-.42-.689-.307-.57-.38q.987-.44 1.924-.978c.5-.515.915-1.108 1.227-1.755a32 32 0 0 1-3.14-3.03c-.67-.94-1.253-1.94-1.74-2.986a33 33 0 0 1-6.067 1.32 9.26 9.26 0 0 1-4.316-.62c-2.123-1.116-3.441-3.881-5.382-5.409-1.236-.972-2.263-2.09-3.727-2.286a4 4 0 0 0-.41-.031z" style="fill:gold"/><path d="M517.296 177.82c.88-.116 2.684-.55 3.29-1.267.282-.335 1.074-1.268 1.074-1.268a4.87 4.87 0 0 1-2.954 4.4 9.14 9.14 0 0 1-4.9.746 19 19 0 0 1-2.954-.746c1.052 1.365.517 2.33-.806 2.983 0 0 .196-1.308-.2-1.492-.858-.396-1.824.122-2.734.726-.72.427-1.54.65-2.376.648a6.4 6.4 0 0 1-2.843-.481c-.645-.271-1.762-1.305-2.236-1.203-1.022.222-2.313.347-2.895 1.306-.19.38-.19.827 0 1.206a3.15 3.15 0 0 0 2.08 1.407c2.148.583 4.4.66 6.582.224 2.388-.408 5.176-1.227 7.564-1.721 2.367-.49 5.418-1.415 7.212-1.863a22.5 22.5 0 0 1 6.963-.857c4.155.075 5.514 2.524 5.388 5.198-.129 2.747-2.633 3.99-4.776 4.761-3.769 1.355-8.942.584-12.194.491 0 0 1.09 1.014 1.585 1.478.579.543.868 1.679 1.584 1.956.982.38 2.484-.374 3.521-.44a37 37 0 0 1 3.918.098 2.47 2.47 0 0 1 1.014-.851c.31-.096.64-.096.95-.001.447.19.748.773.56 1.86.187.28.462.49.783.593.5.119 1.084.014 1.37.113q.648.284 1.232.685a7 7 0 0 0-1.144.511 2.8 2.8 0 0 0-.537.67 5.3 5.3 0 0 1 1.568.248c.38.241.704.56.952.934a1.9 1.9 0 0 0-.983.17 5 5 0 0 0-.64.639s1.294-.116 1.736.31q.465.493.84 1.058a4.3 4.3 0 0 0-1.03.09q-.317.141-.594.347a4.5 4.5 0 0 1 1.288 1.12c.226.49.36 1.017.392 1.555a6 6 0 0 0-.851-.6 1.9 1.9 0 0 0-.662-.085l.21 2.207c.051.542.736 1.13.858 1.55.166.396.105.852-.16 1.191a1.58 1.58 0 0 1-1.717.596 2.35 2.35 0 0 1-.839-.554q-.241.513-.597.956a1.26 1.26 0 0 1-1.123.458 1.46 1.46 0 0 1-1.02-.577 4.6 4.6 0 0 1-.544-1.488l-1.24.272a1.66 1.66 0 0 1-1.176-.685 1.82 1.82 0 0 1 .16-1.7c.352-.465 1.323-.49 1.818-.745.499-.335.922-.77 1.245-1.276a32 32 0 0 1-2.967-2.87c-.492-.605-1.34-2.02-1.34-2.02s-2.64.884-3.636 1.063a16.9 16.9 0 0 1-5.072 0c-3.754 0-6.252-6.404-9.665-7.866a3.33 3.33 0 0 0-2.622-.106c-3.955.98-8.178 6.548-12.096 7.696a30 30 0 0 1-4.976.638 5.4 5.4 0 0 1-1.073 1.696 4.75 4.75 0 0 1-1.99.437 9 9 0 0 1-.782 2.176 5.5 5.5 0 0 1-1.633 1.233 3.74 3.74 0 0 0 .03-2.18 8.7 8.7 0 0 1-1.174 1.855 9 9 0 0 1-1.734 1.16c.24-.668.24-1.4 0-2.068a7.7 7.7 0 0 1-.946 1.742 6.5 6.5 0 0 1-1.601.98 2.78 2.78 0 0 0 0-2.178 6.9 6.9 0 0 1-.913 1.742 9 9 0 0 1-2.028 1.266 4.17 4.17 0 0 0 .296-2.246l-.975-.002c-1.176-.002-1.25 1.197-1.798 1.743a1.86 1.86 0 0 1-1.83.382c-.74-.295-1.395-1.331-.499-2.855a1.995 1.995 0 0 1-2.355-2.015c.004-1.002.306-1.887 1.87-1.78a4.7 4.7 0 0 1-.124-1.324c.111-.636.56-1.188 1.17-1.126a1.6 1.6 0 0 1 .929.5c.336.438.429 1.074.989 1.55.654.36 1.395.53 2.14.494a37 37 0 0 1 4.862-2.686 39 39 0 0 1 3.947-1.031l.09-8.658c.823.12 1.655.152 2.484.095 2.596.146 5.179.468 7.73.967l3.987-.33s6.65-1.21 9.812-1.59c1.592-.22 3.2-.297 4.804-.226 2.41.152 4.48.873 6.747 1.021 1.695.204 3.403.28 5.11.227 2.72-.188 7.58.034 9.126-2.935a2.423 2.423 0 0 0-2.807-3.227c-.555.142-1.261.613-1.33 1.192-.045.34.043.685.247.962.228.367.522.688.869.945a3.43 3.43 0 0 1-1.908-.401 4.8 4.8 0 0 1-.882-1.982 2.2 2.2 0 0 0-.417 1.433 2.48 2.48 0 0 0 .503 1.57 2.94 2.94 0 0 1-1.846-.858 7.3 7.3 0 0 1-.73-2.05 2.52 2.52 0 0 0-.585 1.48c.054.57.179 1.13.37 1.667a3.8 3.8 0 0 1-1.716-1.144 7.1 7.1 0 0 1-.579-2.09c-1.415.391-4.117.945-7.058 1.647-2.072.494-5.237 1.254-7.474 1.566-3.841.536-6.638.259-8.999-.854a3.19 3.19 0 0 1-2.1-2.453 3.43 3.43 0 0 1 .695-2.628 7.4 7.4 0 0 1 3.978-2.462 51 51 0 0 1 6.914-1.566 22 22 0 0 1 7.445.45c.923.206 1.89.001 2.65-.561a1.193 1.193 0 0 0 .123-1.748c.637.1 1.166.542 1.38 1.15.11.506.092 1.031-.051 1.53z" style="fill:none;stroke:#806600;stroke-width:.25321;stroke-miterlimit:103.17453"/><path d="M487.75 190.152c.947.59 1.987-.183 2.202-.262a2.5 2.5 0 0 1-.76-1.077 6.8 6.8 0 0 1-.298-1.839c-.07-1.573.557-1.817.577-1.698a7 7 0 0 0 1.475-.69c.386-.362.637-.844.712-1.367a4.9 4.9 0 0 0-.129-1.868c-1.515-.087-1.9.114-2.254.577a7 7 0 0 0-.243-1.479 4.6 4.6 0 0 0-.595-1.214 2 2 0 0 0-.516-.508c-.01.401-.37.768-.554 1.048a6.4 6.4 0 0 0-.54-2.089 1.673 1.673 0 0 0-2.523-.736 6.3 6.3 0 0 0-1.58 1.469 2.25 2.25 0 0 1 .098-1.182 2 2 0 0 0-.707.15 4.6 4.6 0 0 0-1.156.702 7 7 0 0 0-1 1.116c-.026-.608-.233-.958-1.59-1.7a4.9 4.9 0 0 0-1.114 1.503 2.34 2.34 0 0 0-.137 1.536c.237.49.529.952.871 1.376.082-.09.479.454-.428 1.742a6.8 6.8 0 0 1-1.24 1.389 2.5 2.5 0 0 1-1.222.497c.337.878.43 1.237 1.715 1.407-2.93 2.102-3.261 5.455-1.013 8.311.252-.513.57-.99.945-1.421.007.908.314 1.788.874 2.504.271.277.403 1.817.795 2.301q.405.484.86.923s.39-1.222.96-1.412c.576-.19 1.651-.5 2.006-.611a7.5 7.5 0 0 0 1.985-1.746l-.224 1.86c3.852-1.366 4.732-3.982 3.745-7.512z" style="fill:gold"/><path d="M480.28 185.407a7.85 7.85 0 0 1-.776 3.878l2.504 1.004 2.472.285c-.201-1.012.788-2.99 1.282-3.662l-1.817.039-.81-.81-1.484.329-1.371-1.064z" style="fill:#504416"/><path d="M480.773 186.032a3.06 3.06 0 0 0-.077 1.872l.722-1.547zm3.507 1.14-.203 1.697c.47-.435.792-1.005.922-1.631l-.718-.065zm-3.58 1.195a3.07 3.07 0 0 0-.923 1.631l.718.064zm3.15.9-.723 1.547.645.324c.22-.6.248-1.255.077-1.872zm-2.834-8.2c-.469-.026-.8.144-.905.516-.142.497.206 1.032.942 1.242a1.28 1.28 0 0 0 1.595-.662c.142-.497-.383-.794-1.12-1.004a2.5 2.5 0 0 0-.512-.093zm5.16 1.493c-.37-.015-.638.092-.727.402a1.28 1.28 0 0 0 1.005 1.404c.736.21 1.315-.06 1.457-.557.141-.497-.245-.899-.982-1.11a3.2 3.2 0 0 0-.754-.138z" style="fill:#fff"/><path d="M481.022 180.943a1.4 1.4 0 0 0-.467.046.79.79 0 0 0-.561.561.96.96 0 0 0 .162.833c.217.28.521.48.865.567a1.38 1.38 0 0 0 1.739-.754.68.68 0 0 0-.272-.735 2.7 2.7 0 0 0-.921-.424 2.4 2.4 0 0 0-.546-.095zm-.009.245q.248.018.486.087c.3.076.584.206.837.383.168.091.246.29.186.47-.261.53-.877.78-1.434.585a1.33 1.33 0 0 1-.733-.466.72.72 0 0 1-.126-.629.54.54 0 0 1 .402-.398 1.2 1.2 0 0 1 .38-.033zm5.167 1.253a2 2 0 0 0-.227.01.68.68 0 0 0-.618.48 1.38 1.38 0 0 0 1.078 1.56c.338.106.702.097 1.034-.027a.96.96 0 0 0 .578-.62.79.79 0 0 0-.18-.774 1.9 1.9 0 0 0-.886-.493 3.3 3.3 0 0 0-.78-.137zm-.012.25q.369.018.724.124c.286.066.55.208.764.41a.54.54 0 0 1 .132.552.71.71 0 0 1-.439.467c-.28.1-.586.103-.868.01a1.17 1.17 0 0 1-.91-1.254c.06-.204.176-.275.407-.301q.094-.01.189-.008z" style="fill:#d1b948"/><path d="M481.047 179.963a1.22 1.22 0 0 0-.985.247c-.147.142-.17.593-.17.593l.527.006.593.17 1.28.574 1.402-.08s-.766-.313-1.141-.525c-.506-.287-.931-.906-1.507-.984zm6.717 1.917c-.484-.124-1.04.134-1.548.11-.43-.017-1.276-.165-1.276-.165l1.149.81 1.39.188.577.165.451.273s.22-.396.17-.593a1.22 1.22 0 0 0-.911-.79zm-8.138 7.446c-1.345 3.253 3.858 4.898 4.62 1.319a10.5 10.5 0 0 1-4.62-1.319" style="fill:gold"/><path d="m479.502 188.995-.105.258a2.58 2.58 0 0 0 .067 2.296 2.68 2.68 0 0 0 5.02-.844l.061-.27-.284-.017a10.24 10.24 0 0 1-4.522-1.291l-.235-.132zm.163.398a13.3 13.3 0 0 0 4.581 1.27 3.12 3.12 0 0 1-1.065 1.687 3.33 3.33 0 0 1-2.054.165 3.4 3.4 0 0 1-1.557-1.356 2.5 2.5 0 0 1 .095-1.767z" style="fill:#806600"/><path d="M481.766 186.478a14.5 14.5 0 0 0-.773 6.787 14.4 14.4 0 0 0 2.92-6.152c.003-.088-.426-.28-.48-.35a7 7 0 0 1-.362-.569q-.32.206-.678.331c-.21.019-.422.002-.627-.049z" style="fill:#377bc8;stroke:#2c5aa0;stroke-width:.25321;stroke-miterlimit:103.17453"/><path d="M485.67 176.684a6 6 0 0 0-1.411.252 6.3 6.3 0 0 0-1.58 1.47 2.25 2.25 0 0 1 .099-1.183 2 2 0 0 0-.708.15 4.6 4.6 0 0 0-1.156.702 7 7 0 0 0-1 1.116c.491-.017 1.584-1.003 2.006-.907.359.08.111 1.04.456 1.084.472.06.892-.679 1.479-1.196.52-.458 1.244-.807 1.59-.693.498.343.843.865.964 1.458.217.785.378 1.632.739 1.808.358.175.67-.798 1.034-.676.433.144.634 1.628 1.048 1.846a7 7 0 0 0-.243-1.479 4.6 4.6 0 0 0-.595-1.215 2 2 0 0 0-.515-.507c-.01.401-.37.768-.555 1.048a6.4 6.4 0 0 0-.539-2.089 6 6 0 0 0-1.112-.989zm-6.246 5.485c-.533.905.137 1.775 1.217 1.968l-.418 1.065.613 1.201 1.118.39 1.057-.418.703.954.981.222 1.263-.76.505-.854.789-.05.674-.323.24-.84a2.2 2.2 0 0 1-2.516.36 2.02 2.02 0 0 1-.433 1.33c-.274.258-.67.341-1.026.216a2.2 2.2 0 0 1-1.045-.925c-.459.275-.851.484-1.135.391a1.4 1.4 0 0 1-1.024-.954 1.51 1.51 0 0 1 .454-1.352c-2.35-.62-1.507-1.247-2.016-1.62zm-1.214.304a19 19 0 0 1-1.889 2.577 2.5 2.5 0 0 1-1.221.498c.337.877.43 1.237 1.714 1.407-2.929 2.101-3.26 5.454-1.013 8.31.252-.512.57-.99.945-1.42.008.908.315 1.788.874 2.503.272.277.404 1.817.796 2.302q.405.484.859.922s.39-1.221.961-1.412c.576-.19 1.65-.498 2.005-.61a7.5 7.5 0 0 0 1.985-1.747l-.222 1.86c3.853-1.365 4.732-3.981 3.746-7.511.947.59 1.988-.183 2.202-.262a2.5 2.5 0 0 1-.76-1.077 7.4 7.4 0 0 1-.297-1.839l-.09-1.158s-.436 1.3-.54 1.663a8 8 0 0 0 .037 1.649 5.2 5.2 0 0 1-1.808-.905c.329 1.268.574 2.556.734 3.856 0 .85-.153 1.692-.45 2.488a6.6 6.6 0 0 1-1.613 1.67q.224-1.114.315-2.246c-.009-.814-.332-2.883-.332-2.883a15.7 15.7 0 0 1-.83 2.752c-.418.72-1.185 1.987-1.185 1.987.215-2.028.109-2.144-.154-2.911-.23 1.277-.694 2.5-1.372 3.606a7.5 7.5 0 0 1-1.548.74 1.7 1.7 0 0 0-.701.578s-.505-1.41-.646-1.737a20 20 0 0 1-1.139-2.238c-.309-1.113 1.183-3.507 1.183-3.507-.552.01-1.105.66-1.701 1.375q-.706.782-1.311 1.646a15 15 0 0 1-.47-2.255 4.3 4.3 0 0 1 .663-2.092 20.6 20.6 0 0 1 3.292-3.108 4.24 4.24 0 0 1-2.806.054s1.107-1.299 1.289-1.604c.32-.59.49-1.25.499-1.92zm4.998 1.069q-.628 0-1.253.064l.075.48.504.196.682 1.015 1.737-.465.232-.398a6.2 6.2 0 0 0-1.5-.847 2.4 2.4 0 0 0-.475-.043z" style="fill:gold"/><path d="M487.75 190.152c.947.59 1.987-.183 2.202-.262a2.5 2.5 0 0 1-.76-1.077 6.8 6.8 0 0 1-.298-1.839c-.07-1.573.557-1.817.577-1.698a7 7 0 0 0 1.475-.69c.386-.362.637-.844.712-1.367a4.9 4.9 0 0 0-.129-1.868c-1.515-.087-1.9.114-2.254.577a7 7 0 0 0-.243-1.479 4.6 4.6 0 0 0-.595-1.214 2 2 0 0 0-.516-.508c-.01.401-.37.768-.554 1.048a2.42 2.42 0 1 0-4.643-1.357 2.25 2.25 0 0 1 .098-1.182 2 2 0 0 0-.707.15 4.6 4.6 0 0 0-1.156.702 7 7 0 0 0-1 1.116c-.025-.608-.233-.958-1.59-1.7a4.9 4.9 0 0 0-1.114 1.503 2.34 2.34 0 0 0-.136 1.535c.236.49.528.953.87 1.376.083-.09.479.455-.428 1.742a6.8 6.8 0 0 1-1.24 1.39 2.5 2.5 0 0 1-1.222.497c.338.878.43 1.237 1.715 1.407-2.929 2.101-3.261 5.454-1.013 8.31.252-.512.57-.99.945-1.42.007.908.315 1.788.874 2.503.271.277.403 1.818.795 2.302q.405.484.86.923s.39-1.222.961-1.412c.576-.191 1.65-.5 2.005-.611a7.5 7.5 0 0 0 1.985-1.746l-.224 1.86c3.853-1.367 4.732-3.983 3.746-7.512z" style="fill:none;stroke:#806600;stroke-width:.25321;stroke-miterlimit:103.17453"/><path d="M478.37 178.555a3.1 3.1 0 0 0-.526 1.575c.223.58.535 1.12.923 1.605a8.4 8.4 0 0 0 .44-2.213c-.06-.44-.836-.967-.836-.967zm2.089 2.06a.8.8 0 0 0-.337.087c-.23.114-.388.147-.485.49.243-.05.479-.135.698-.253a.36.36 0 0 1 .29.031q.562.325 1.162.576a4.7 4.7 0 0 0 1.826-.07 2.6 2.6 0 0 1-.245.75c-.075.108-.615.314-.865.55-.123.12-.247.24-.35.352a1 1 0 0 0-.242.345c-.063.19-.08.394-.047.592l.012.163.155.049c.422.082.748.419.816.843l.023.07.051.041q.075.072.16.132.087.055.189.07c.126.014.15-.011.266-.004l.098.006.077-.067c.285-.324.74-.438 1.144-.284l.152.039.1-.132c.13-.154.22-.334.268-.529.031-.15-.041-.224-.07-.375a7 7 0 0 0-.11-.483c-.088-.333-.364-.94-.37-1.07q.024-.377.163-.73c.426.46.939.829 1.51 1.087q.641.104 1.292.124c.157.029.226.075.26.127l.461.583a.87.87 0 0 0-.155-.777c-.136-.217-.258-.194-.476-.235-.44-.083-.946-.031-1.247-.116a3.8 3.8 0 0 1-1.45-1l-.21-.184-.157.232c-.191.338-.28.725-.253 1.113q.144.565.36 1.105c.043.163.082.323.105.45q.02.114.02.23a1 1 0 0 1-.113.216 2.15 2.15 0 0 0-1.51.453c-.06 0-.142-.004-.137-.002l-.047-.042a2.5 2.5 0 0 0-1.134-1.283 1 1 0 0 1 .017-.245q.064-.097.141-.183a7 7 0 0 1 .327-.327c.245-.232.758-.46.908-.678.226-.316.355-.69.371-1.079l-.015-.28-.273.043c-.546.17-1.126.2-1.687.09-.3-.087-.703-.397-1.12-.558a.8.8 0 0 0-.321-.057zm-1.002 1.323a1.48 1.48 0 0 0-.232 1.58c.237.383.614.658 1.05.767-.025.075-.033.085-.064.194a2 2 0 0 0-.114.774c.07.52.34.99.751 1.314.346.28.783.42 1.227.392.24-.02.471-.091.68-.209q.066-.033.127-.074c.121.269.312.5.552.673.36.257.805.368 1.244.312a1.77 1.77 0 0 0 1.643-1.438c.023-.085.018-.088.033-.155.436.157.92.105 1.314-.14.443-.344.681-.89.632-1.45-.361.184-.038.722-.832 1.214-.344.201-.77.202-1.115 0l-.369-.302.024.523s-.03.178-.09.389a2 2 0 0 1-.225.547 1.68 1.68 0 0 1-1.089.534c-.314.032-.63-.05-.89-.232a1.85 1.85 0 0 1-.477-.68l-.12-.507-.256.284a2 2 0 0 1-.391.222 1.3 1.3 0 0 1-.479.15 1.33 1.33 0 0 1-.883-.274 1.98 1.98 0 0 1-.673-1.14q.004-.3.098-.583.062-.204.185-.378l.21-.27-.423.025a1.4 1.4 0 0 1-.975-.623c-.524-.58-.051-1-.072-1.437v-.002zm11.434.191s-.937.039-1.22.38a8.3 8.3 0 0 0-.795 2.112 6 6 0 0 0 1.63-.876 3.1 3.1 0 0 0 .385-1.616" style="fill:#806600"/><path d="M481.424 181.4a.52.52 0 0 0-.146 1.02.52.52 0 1 0 .146-1.02m5.186 1.486a.52.52 0 0 0-.132 1.019.52.52 0 1 0 .13-1.02h.002z" style="fill:#2b2200"/><path d="M467.27 198.956c-.381.178-.937-.245-2.073.954a1.8 1.8 0 0 1 1.85.891.78.78 0 0 0 .699-.542 1.044 1.044 0 0 0-.476-1.303zm26.703 1.535a3.52 3.52 0 0 0-2.507.963 2.35 2.35 0 0 1 2.243.884.92.92 0 0 0 .845-.546.974.974 0 0 0-.58-1.301zm-28.67 1.781c-.293.345-.94.225-1.593 1.87a1.66 1.66 0 0 1 1.99-.067.95.95 0 0 0 .465-.834.89.89 0 0 0-.863-.97v.001zm29.232 2.552c-.332.366-1.122.293-1.81 1.983a2.36 2.36 0 0 1 2.4-.214.92.92 0 0 0 .512-.867.973.973 0 0 0-1.102-.903zm-27.169 1.387a.87.87 0 0 0-.499.15 4 4 0 0 0-.654 2.566c.552-.92.859-1.105 1.718-1.218a1.08 1.08 0 0 0 .078-1.002.79.79 0 0 0-.643-.496zm58.081.196a1 1 0 0 0-.35.092 3.86 3.86 0 0 0-.881 2.465 1.82 1.82 0 0 1 1.817-.983c.215-.28.278-.65.168-.986a.78.78 0 0 0-.754-.588zm-26.919 1.232a1.23 1.23 0 0 0-.584.211 3.53 3.53 0 0 0-.516 2.636 2.35 2.35 0 0 1 1.94-1.43.92.92 0 0 0-.013-1.007.96.96 0 0 0-.827-.41zm33.715.123c-.314-.028-.591.17-.783.587a4.1 4.1 0 0 0 .638 2.572c-.08-.821.243-1.63.867-2.17-.02-.487-.176-.764-.398-.884a.9.9 0 0 0-.324-.105zm-3.717.53a.87.87 0 0 0-.583.368 4.2 4.2 0 0 0 .062 2.684 2.26 2.26 0 0 1 1.304-1.82 1.05 1.05 0 0 0-.193-.98.75.75 0 0 0-.59-.252z" style="fill:#377bc8;stroke:#2c5aa0;stroke-width:.25321;stroke-miterlimit:103.17453"/><path d="M573.445 26.648v-.425l.872-1.926c-3.06-.42-6.151.494-8.49 2.512a22 22 0 0 0-3.585 4.6 14.5 14.5 0 0 0-.937 4.078 23 23 0 0 0-2.427-2.067 3.44 3.44 0 0 0-1.574-.509 6.1 6.1 0 0 0-4.123 1.787 7.35 7.35 0 0 0-1.788 3.748c-.464 2.1.094 4.087-1.29 5.733l-1.96 2.334a9.9 9.9 0 0 0 3.387.769 5.22 5.22 0 0 0 3.436-1.872c.839-.961 1.147-2.42 2.217-3.11a1.71 1.71 0 0 1 1.659-.326c.6.296.635 1.48.416 2.113l-1.348 4.16-2.174-.533-1.758.976-.77.389.083.02 1.534 2.327.526.13-.015.013a17 17 0 0 1-.424.303l-4.156 2.078c-.166.055-.328.112-.5.163l-.014.004-2.93.216a14 14 0 0 1-1.994-.316l-2.93-1.02a9 9 0 0 1-.941-.533l-1.722-1.663a14.9 14.9 0 0 1-2.576-5.391 7.265 7.265 0 0 0 6.223-7.256 7 7 0 0 0-.056-.87 5 5 0 0 0-.068-.567 5.3 5.3 0 0 0-.368-1.175 8 8 0 0 0-.369-.821 8.4 8.4 0 0 0-.772-1.193q-.219-.284-.463-.554a6.82 6.82 0 0 0-4.409-2.1q-.45-.03-.9-.014l-.34-.045c-.112.026-.243.07-.368.108a7.17 7.17 0 0 0-4.1 2.051 7 7 0 0 0-1.612 2.608q-.168.476-.277.968a9 9 0 0 0-.207 1.604v0h0a7.34 7.34 0 0 0 4.014 6.574 34 34 0 0 1-3.315 3.311 19 19 0 0 1-10.842 4.915c-4.214.574-9.842-.698-13.317-3.756a15.2 15.2 0 0 1-2.898-3.47h1.686l2.044-1.895h.087l-.656-.561-1.475-1.367h-.546l.324-4.692c.033-.72.59-1.894 1.384-1.954.694.021 1.33.39 1.694.982.883 1.115.588 2.701 1.097 3.996a5.8 5.8 0 0 0 2.988 3.236c1.322.408 2.702.6 4.086.569l-1.153-3.116c-.813-2.198.672-3.97 1.076-6.26a7.22 7.22 0 0 0-.344-4.465 6.95 6.95 0 0 0-3.785-3.422 4.5 4.5 0 0 0-1.964-.113c-1.22.293-2.42.665-3.59 1.114 0 0 .978-3.093.742-4.46-.286-1.657-.97-4.615-1.961-6.032A28.2 28.2 0 0 0 500 12.58a28.2 28.2 0 0 0-4.438 4.71c-.992 1.416-1.675 4.374-1.962 6.031-.236 1.367.743 4.46.743 4.46a29 29 0 0 0-3.59-1.114 4.5 4.5 0 0 0-1.965.113 6.95 6.95 0 0 0-3.784 3.422 7.22 7.22 0 0 0-.344 4.466c.404 2.29 1.889 4.06 1.075 6.259l-1.152 3.116c1.383.031 2.763-.16 4.086-.569a5.8 5.8 0 0 0 2.988-3.236c.509-1.295.213-2.88 1.097-3.996a2.06 2.06 0 0 1 1.694-.982c.793.06 1.35 1.234 1.384 1.954.154 2.532.31 3.92.426 4.692h-.649l-2.062 1.911 2.062 1.911h1.642a15.2 15.2 0 0 1-2.898 3.471c-3.475 3.058-9.103 4.33-13.317 3.756a19 19 0 0 1-10.842-4.915 34 34 0 0 1-3.233-3.213 7.33 7.33 0 0 0 4.211-6.672h0v0a7.63 7.63 0 0 0-2.095-5.18 7.17 7.17 0 0 0-4.1-2.051c-.126-.038-.256-.082-.37-.108l-.339.045q-.45-.017-.9.014a6.82 6.82 0 0 0-4.409 2.1 8.3 8.3 0 0 0-1.604 2.568q-.252.566-.367 1.175a5 5 0 0 0-.069.566 7 7 0 0 0-.055.871 7.27 7.27 0 0 0 5.954 7.214 15 15 0 0 1-2.587 5.433l-1.721 1.662a9 9 0 0 1-.942.533l-2.93 1.021a14 14 0 0 1-1.993.316l-2.93-.216-.016-.004c-.17-.05-.333-.108-.498-.163l-4.156-2.078q-.217-.15-.425-.303l-.005-.005.56-.138 1.534-2.327.084-.02-.77-.39-1.759-.975-2.174.534-1.348-4.161c-.219-.632-.183-1.817.417-2.113a1.71 1.71 0 0 1 1.658.325c1.07.69 1.379 2.15 2.217 3.11a5.22 5.22 0 0 0 3.437 1.873 9.9 9.9 0 0 0 3.387-.769l-1.961-2.334c-1.384-1.646-.826-3.633-1.29-5.733a7.35 7.35 0 0 0-1.788-3.748 6.1 6.1 0 0 0-4.122-1.787 3.44 3.44 0 0 0-1.574.509 23 23 0 0 0-2.428 2.067 14.5 14.5 0 0 0-.937-4.077 22 22 0 0 0-3.585-4.601 10.75 10.75 0 0 0-8.49-2.512l.872 1.926v.425c.067 0 .132.012.199.014l10.323 22.816-1.34.33-1.548 2.347 2.458 1.365 3.002-.737c.876 2.399 1.72 4.8 2.545 7.175q-1.296.153-2.555.325h0c-.5.598-.77.655-.689 1.186l.036-.003c-.119.462.022.953.367 1.282h0q.15.147.323.268c.038.029.063.059.105.087q.285.191.595.337c.38-.052.776-.098 1.164-.148l.363 1.671-.217-.074-.063 2.372-1.464 3.484 2.458 3.017 1.06 2.535.582-.491.193.89-.312.031.589 1.241.003.014c-.285.04-.576.075-.857.117-.465.597-.716.655-.64 1.186l.033-.004c-.112.458.017.94.341 1.282h0c.272.287.595.522.951.693 4.735-.694 10.106-1.184 15.245-1.598 1.712-.139 3.4-.268 5.028-.394 8.838-.551 17.748-.713 26.636-.808h17.046c5.317 0 16.545.167 26.636.82a241 241 0 0 1 2.822.2q1.407.106 2.782.224a351 351 0 0 1 6.744.643c4.671.487 7.955.913 7.955.913h0l.001-.001q.246-.131.466-.3c.317-.206.574-.49.746-.825a1.27 1.27 0 0 0 .084-.78l.021.001v0c.053-.529-.233-.692-.708-1.252h0s-.292-.039-.817-.105l.272-1.127-.055-.01.228-1.092.63.531 1.06-2.534 2.458-3.018-1.463-3.483-.064-2.372-.218.075.372-1.66c.751.085 1.173.136 1.173.136h0a4 4 0 0 0 .503-.3c.76-.51 1.006-1.049.892-1.606l.022.002c.057-.529-.25-.693-.762-1.253h0s-1.042-.128-2.797-.323q1.304-3.621 2.688-7.218l3.166.778 2.459-1.365-1.548-2.347-1.341-.33 10.324-22.816c.066-.002.131-.014.198-.014z" style="fill:gold;stroke:#806600;stroke-width:.628;stroke-linecap:round;stroke-linejoin:round"/></svg>